<svg width="231" height="149" viewBox="0 0 231 149" fill="none" xmlns="http://www.w3.org/2000/svg">
<g clip-path="url(#clip0_41_1721)">
<path d="M160.978 100.486C137.25 100.487 116.606 82.8052 113.556 58.6879L114.139 58.6143C117.151 82.4338 137.544 99.8978 160.978 99.8992C162.969 99.8991 164.958 99.7737 166.933 99.5238C192.779 96.262 211.15 72.603 207.885 46.7836L208.468 46.71C211.774 72.8503 193.174 96.8039 167.007 100.106C165.007 100.359 162.993 100.486 160.978 100.486Z" fill="#3F3D56"/>
<path d="M179.899 23.6632C178.353 19.5805 178.493 15.0516 180.29 11.0726C182.087 7.09366 185.392 3.99067 189.479 2.44628C193.566 0.901893 198.1 1.0426 202.083 2.83746C206.066 4.63231 209.172 7.93428 210.718 12.017L210.168 12.2247C208.677 8.28767 205.682 5.10347 201.841 3.37262C198 1.64178 193.628 1.50607 189.687 2.99535C185.746 4.48464 182.558 7.47693 180.826 11.3139C179.093 15.151 178.957 19.5184 180.448 23.4555L179.899 23.6632Z" fill="#3F3D56"/>
<path d="M227.625 52.3894H197.761C196.96 52.3885 196.193 52.0705 195.627 51.5051C195.061 50.9397 194.743 50.1732 194.742 49.3737V9.8707C194.743 9.07116 195.061 8.30462 195.627 7.73926C196.193 7.1739 196.96 6.85589 197.761 6.85498H227.625C228.425 6.85589 229.193 7.1739 229.759 7.73926C230.325 8.30462 230.643 9.07116 230.644 9.8707V49.3737C230.643 50.1732 230.325 50.9397 229.759 51.5051C229.193 52.0705 228.425 52.3885 227.625 52.3894Z" fill="#E6E6E6"/>
<path d="M215.759 50.0227H199.86C199.11 50.0219 198.392 49.724 197.862 49.1946C197.332 48.6651 197.033 47.9472 197.033 47.1984V12.0461C197.033 11.2973 197.332 10.5794 197.862 10.0499C198.392 9.52045 199.11 9.22263 199.86 9.2218H225.526C226.275 9.22263 226.994 9.52046 227.524 10.0499C228.054 10.5794 228.352 11.2973 228.353 12.0461V37.4422C228.349 40.7776 227.021 43.9753 224.66 46.3338C222.299 48.6923 219.098 50.0189 215.759 50.0227Z" fill="white"/>
<path d="M222.965 26.8501H202.42C202.243 26.8501 202.072 26.7795 201.946 26.654C201.821 26.5285 201.75 26.3582 201.75 26.1807C201.75 26.0032 201.821 25.8329 201.946 25.7074C202.072 25.5819 202.243 25.5114 202.42 25.5114H222.965C223.143 25.5114 223.314 25.5819 223.439 25.7074C223.565 25.8329 223.635 26.0032 223.635 26.1807C223.635 26.3582 223.565 26.5285 223.439 26.654C223.314 26.7795 223.143 26.8501 222.965 26.8501Z" fill="#E4E4E4"/>
<path d="M222.965 29.495H202.42C202.243 29.4947 202.073 29.424 201.947 29.2985C201.822 29.173 201.752 29.0029 201.752 28.8256C201.752 28.6484 201.822 28.4783 201.947 28.3528C202.073 28.2273 202.243 28.1566 202.42 28.1562H222.965C223.143 28.1562 223.314 28.2268 223.439 28.3523C223.565 28.4778 223.635 28.6481 223.635 28.8256C223.635 29.0032 223.565 29.1734 223.439 29.299C223.314 29.4245 223.143 29.495 222.965 29.495Z" fill="#E4E4E4"/>
<path d="M211.326 32.1399H202.42C202.243 32.1399 202.072 32.0694 201.946 31.9439C201.821 31.8183 201.75 31.6481 201.75 31.4705C201.75 31.293 201.821 31.1227 201.946 30.9972C202.072 30.8717 202.243 30.8011 202.42 30.8011H211.326C211.504 30.8011 211.674 30.8717 211.8 30.9972C211.926 31.1227 211.996 31.293 211.996 31.4705C211.996 31.6481 211.926 31.8183 211.8 31.9439C211.674 32.0694 211.504 32.1399 211.326 32.1399Z" fill="#E4E4E4"/>
<path d="M222.965 16.0488H202.42C202.243 16.0488 202.072 15.9783 201.946 15.8527C201.821 15.7272 201.75 15.557 201.75 15.3794C201.75 15.2019 201.821 15.0317 201.946 14.9061C202.072 14.7806 202.243 14.7101 202.42 14.7101H222.965C223.143 14.7101 223.314 14.7806 223.439 14.9061C223.565 15.0317 223.635 15.2019 223.635 15.3794C223.635 15.557 223.565 15.7272 223.439 15.8527C223.314 15.9783 223.143 16.0488 222.965 16.0488Z" fill="#E4E4E4"/>
<path d="M222.965 18.6938H202.42C202.243 18.6938 202.072 18.6232 201.946 18.4977C201.821 18.3722 201.75 18.2019 201.75 18.0244C201.75 17.8468 201.821 17.6766 201.946 17.551C202.072 17.4255 202.243 17.355 202.42 17.355H222.965C223.143 17.355 223.314 17.4255 223.439 17.551C223.565 17.6766 223.636 17.8468 223.636 18.0244C223.636 18.2019 223.565 18.3722 223.439 18.4977C223.314 18.6232 223.143 18.6938 222.965 18.6938Z" fill="#E4E4E4"/>
<path d="M211.326 21.3387H202.42C202.243 21.3383 202.073 21.2676 201.947 21.1421C201.822 21.0166 201.752 20.8466 201.752 20.6693C201.752 20.492 201.822 20.3219 201.947 20.1964C202.073 20.0709 202.243 20.0002 202.42 19.9999H211.326C211.504 20.0002 211.674 20.0709 211.799 20.1964C211.924 20.3219 211.995 20.492 211.995 20.6693C211.995 20.8466 211.924 21.0166 211.799 21.1421C211.674 21.2676 211.504 21.3383 211.326 21.3387Z" fill="#E4E4E4"/>
<path d="M222.965 38.0293H202.42C202.243 38.0293 202.072 37.9587 201.946 37.8332C201.821 37.7077 201.75 37.5374 201.75 37.3599C201.75 37.1824 201.821 37.0121 201.946 36.8866C202.072 36.7611 202.243 36.6906 202.42 36.6906H222.965C223.143 36.6906 223.314 36.7611 223.439 36.8866C223.565 37.0121 223.635 37.1824 223.635 37.3599C223.635 37.5374 223.565 37.7077 223.439 37.8332C223.314 37.9587 223.143 38.0293 222.965 38.0293Z" fill="#E24E42"/>
<path d="M205.634 40.6742H202.42C202.243 40.6738 202.073 40.6032 201.947 40.4777C201.822 40.3522 201.752 40.1821 201.752 40.0048C201.752 39.8275 201.822 39.6575 201.947 39.532C202.073 39.4065 202.243 39.3358 202.42 39.3354H205.634C205.812 39.3354 205.982 39.406 206.108 39.5315C206.234 39.657 206.304 39.8273 206.304 40.0048C206.304 40.1824 206.234 40.3526 206.108 40.4782C205.982 40.6037 205.812 40.6742 205.634 40.6742Z" fill="#E24E42"/>
<path d="M211.326 43.3191H202.42C202.243 43.3191 202.072 43.2486 201.946 43.1231C201.821 42.9975 201.75 42.8273 201.75 42.6497C201.75 42.4722 201.821 42.3019 201.946 42.1764C202.072 42.0509 202.243 41.9803 202.42 41.9803H211.326C211.504 41.9803 211.674 42.0509 211.8 42.1764C211.926 42.3019 211.996 42.4722 211.996 42.6497C211.996 42.8273 211.926 42.9975 211.8 43.1231C211.674 43.2486 211.504 43.3191 211.326 43.3191Z" fill="#E24E42"/>
<path d="M114.001 51.0651C111.413 44.2212 111.652 36.6307 114.665 29.9625C117.678 23.2944 123.218 18.0944 130.068 15.506C136.918 12.9175 144.516 13.1525 151.193 16.1592C157.869 19.1658 163.077 24.6981 165.671 31.5396L165.122 31.7474C163.867 28.429 161.969 25.3902 159.538 22.8045C157.107 20.2188 154.19 18.1369 150.954 16.6776C147.717 15.2184 144.224 14.4105 140.675 14.3C137.126 14.1895 133.589 14.7786 130.268 16.0337C126.947 17.2888 123.905 19.1852 121.318 21.6147C118.73 24.0442 116.647 26.9591 115.188 30.1929C113.728 33.4268 112.921 36.9162 112.812 40.4618C112.702 44.0075 113.293 47.5399 114.551 50.8574L114.001 51.0651Z" fill="#3F3D56"/>
<path d="M165.355 6.07056C166.904 6.07056 168.159 4.81639 168.159 3.26929C168.159 1.72219 166.904 0.468018 165.355 0.468018C163.806 0.468018 162.551 1.72219 162.551 3.26929C162.551 4.81639 163.806 6.07056 165.355 6.07056Z" fill="#E6E6E6"/>
<path d="M169.174 86.769C170.722 86.769 171.978 85.5149 171.978 83.9678C171.978 82.4207 170.722 81.1665 169.174 81.1665C167.625 81.1665 166.37 82.4207 166.37 83.9678C166.37 85.5149 167.625 86.769 169.174 86.769Z" fill="#E6E6E6"/>
<path d="M97.2044 20.1561C98.7531 20.1561 100.009 18.902 100.009 17.3549C100.009 15.8078 98.7531 14.5536 97.2044 14.5536C95.6557 14.5536 94.4003 15.8078 94.4003 17.3549C94.4003 18.902 95.6557 20.1561 97.2044 20.1561Z" fill="#E6E6E6"/>
<path d="M135.919 132.459H71.7245C70.0041 132.457 68.3547 131.774 67.1382 130.559C65.9217 129.343 65.2374 127.696 65.2355 125.977V41.0638C65.2374 39.3452 65.9217 37.6975 67.1382 36.4822C68.3547 35.267 70.0041 34.5834 71.7245 34.5814H135.919C137.639 34.5834 139.289 35.267 140.505 36.4822C141.722 37.6975 142.406 39.3452 142.408 41.0638V125.977C142.406 127.696 141.722 129.343 140.505 130.559C139.289 131.774 137.639 132.457 135.919 132.459Z" fill="#E6E6E6"/>
<path d="M111.418 127.203H76.2369C74.6705 127.202 73.1686 126.579 72.061 125.473C70.9533 124.366 70.3303 122.866 70.3285 121.301V45.7398C70.3303 44.1749 70.9533 42.6746 72.061 41.5681C73.1687 40.4616 74.6705 39.8392 76.2369 39.8374H131.407C132.973 39.8392 134.475 40.4616 135.583 41.5681C136.69 42.6746 137.313 44.1749 137.315 45.7398V101.333C137.307 108.192 134.576 114.768 129.721 119.618C124.866 124.468 118.284 127.196 111.418 127.203Z" fill="white"/>
<path d="M125.903 54.3438H81.7404C81.5511 54.3441 81.3636 54.307 81.1886 54.2349C81.0137 54.1627 80.8546 54.0567 80.7207 53.9231C80.5867 53.7895 80.4804 53.6308 80.4079 53.4561C80.3354 53.2814 80.2981 53.0941 80.2981 52.905C80.2981 52.7159 80.3354 52.5286 80.4079 52.3539C80.4804 52.1792 80.5867 52.0205 80.7207 51.8869C80.8546 51.7532 81.0137 51.6473 81.1886 51.5751C81.3636 51.5029 81.5511 51.4659 81.7404 51.4662H125.903C126.092 51.4659 126.28 51.5029 126.455 51.5751C126.63 51.6473 126.789 51.7532 126.923 51.8869C127.057 52.0205 127.163 52.1792 127.236 52.3539C127.308 52.5286 127.345 52.7159 127.345 52.905C127.345 53.0941 127.308 53.2814 127.236 53.4561C127.163 53.6308 127.057 53.7895 126.923 53.9231C126.789 54.0567 126.63 54.1627 126.455 54.2349C126.28 54.307 126.092 54.3441 125.903 54.3438Z" fill="#E24E42"/>
<path d="M125.903 60.0292H81.7404C81.3584 60.0292 80.992 59.8777 80.7219 59.6078C80.4518 59.338 80.3 58.972 80.3 58.5904C80.3 58.2088 80.4518 57.8428 80.7219 57.5729C80.992 57.3031 81.3584 57.1515 81.7404 57.1515H125.903C126.285 57.1515 126.651 57.3031 126.921 57.5729C127.192 57.8428 127.343 58.2088 127.343 58.5904C127.343 58.972 127.192 59.338 126.921 59.6078C126.651 59.8777 126.285 60.0292 125.903 60.0292Z" fill="#E24E42"/>
<path d="M100.884 65.7147H81.7404C81.3584 65.7147 80.992 65.5631 80.7219 65.2932C80.4518 65.0234 80.3 64.6574 80.3 64.2758C80.3 63.8942 80.4518 63.5282 80.7219 63.2584C80.992 62.9885 81.3584 62.8369 81.7404 62.8369H100.884C101.266 62.8369 101.632 62.9885 101.902 63.2584C102.172 63.5282 102.324 63.8942 102.324 64.2758C102.324 64.6574 102.172 65.0234 101.902 65.2932C101.632 65.5631 101.266 65.7147 100.884 65.7147Z" fill="#E24E42"/>
<path d="M125.903 77.6221H81.7404C81.5511 77.6224 81.3636 77.5854 81.1886 77.5132C81.0137 77.441 80.8546 77.3351 80.7207 77.2014C80.5867 77.0678 80.4804 76.9091 80.4079 76.7344C80.3354 76.5597 80.2981 76.3724 80.2981 76.1833C80.2981 75.9942 80.3354 75.8069 80.4079 75.6322C80.4804 75.4575 80.5867 75.2988 80.7207 75.1652C80.8546 75.0316 81.0137 74.9256 81.1886 74.8534C81.3636 74.7813 81.5511 74.7442 81.7404 74.7445H125.903C126.092 74.7442 126.28 74.7813 126.455 74.8534C126.63 74.9256 126.789 75.0316 126.923 75.1652C127.057 75.2988 127.163 75.4575 127.236 75.6322C127.308 75.8069 127.345 75.9942 127.345 76.1833C127.345 76.3724 127.308 76.5597 127.236 76.7344C127.163 76.9091 127.057 77.0678 126.923 77.2014C126.789 77.3351 126.63 77.441 126.455 77.5132C126.28 77.5854 126.092 77.6224 125.903 77.6221Z" fill="#E4E4E4"/>
<path d="M125.903 83.3076H81.7404C81.3584 83.3076 80.992 83.156 80.7219 82.8861C80.4518 82.6163 80.3 82.2503 80.3 81.8687C80.3 81.4871 80.4518 81.1211 80.7219 80.8512C80.992 80.5814 81.3584 80.4298 81.7404 80.4298H125.903C126.285 80.4298 126.651 80.5814 126.921 80.8512C127.192 81.1211 127.343 81.4871 127.343 81.8687C127.343 82.2503 127.192 82.6163 126.921 82.8861C126.651 83.156 126.285 83.3076 125.903 83.3076Z" fill="#E4E4E4"/>
<path d="M100.884 88.993H81.7404C81.3584 88.993 80.992 88.8414 80.7219 88.5715C80.4518 88.3017 80.3 87.9357 80.3 87.5541C80.3 87.1725 80.4518 86.8065 80.7219 86.5367C80.992 86.2668 81.3584 86.1152 81.7404 86.1152H100.884C101.266 86.1152 101.632 86.2668 101.902 86.5367C102.172 86.8065 102.324 87.1725 102.324 87.5541C102.324 87.9357 102.172 88.3017 101.902 88.5715C101.632 88.8414 101.266 88.993 100.884 88.993Z" fill="#E4E4E4"/>
<path d="M125.903 100.9H81.7404C81.5511 100.901 81.3636 100.864 81.1886 100.791C81.0137 100.719 80.8546 100.613 80.7207 100.48C80.5867 100.346 80.4804 100.187 80.4079 100.013C80.3354 99.8379 80.2981 99.6506 80.2981 99.4615C80.2981 99.2724 80.3354 99.0851 80.4079 98.9104C80.4804 98.7357 80.5867 98.577 80.7207 98.4434C80.8546 98.3098 81.0137 98.2038 81.1886 98.1316C81.3636 98.0595 81.5511 98.0224 81.7404 98.0227H125.903C126.092 98.0224 126.28 98.0595 126.455 98.1316C126.63 98.2038 126.789 98.3098 126.923 98.4434C127.057 98.577 127.163 98.7357 127.236 98.9104C127.308 99.0851 127.345 99.2724 127.345 99.4615C127.345 99.6506 127.308 99.8379 127.236 100.013C127.163 100.187 127.057 100.346 126.923 100.48C126.789 100.613 126.63 100.719 126.455 100.791C126.28 100.864 126.092 100.901 125.903 100.9Z" fill="#E4E4E4"/>
<path d="M125.903 106.586H81.7404C81.3584 106.586 80.992 106.434 80.7219 106.164C80.4518 105.894 80.3 105.528 80.3 105.147C80.3 104.765 80.4518 104.399 80.7219 104.129C80.992 103.86 81.3584 103.708 81.7404 103.708H125.903C126.285 103.708 126.651 103.86 126.921 104.129C127.192 104.399 127.343 104.765 127.343 105.147C127.343 105.528 127.192 105.894 126.921 106.164C126.651 106.434 126.285 106.586 125.903 106.586Z" fill="#E4E4E4"/>
<path d="M100.884 112.271H81.7404C81.3588 112.271 80.9929 112.119 80.7233 111.849C80.4536 111.579 80.3021 111.214 80.3021 110.832C80.3021 110.451 80.4536 110.085 80.7233 109.816C80.9929 109.546 81.3588 109.394 81.7404 109.393H100.884C101.265 109.394 101.631 109.546 101.901 109.816C102.171 110.085 102.322 110.451 102.322 110.832C102.322 111.214 102.171 111.579 101.901 111.849C101.631 112.119 101.265 112.271 100.884 112.271Z" fill="#E4E4E4"/>
<path d="M185.379 69.4094H152.87C151.999 69.4084 151.164 69.0622 150.547 68.4468C149.931 67.8314 149.585 66.9969 149.584 66.1266V23.1247C149.585 22.2544 149.931 21.42 150.547 20.8045C151.164 20.1891 151.999 19.8429 152.87 19.8419H185.379C186.251 19.8429 187.086 20.1891 187.702 20.8045C188.318 21.42 188.665 22.2544 188.666 23.1247V66.1266C188.665 66.9969 188.318 67.8313 187.702 68.4468C187.086 69.0622 186.251 69.4084 185.379 69.4094Z" fill="#E6E6E6"/>
<path d="M173.328 66.82H155.155C154.343 66.8191 153.564 66.4963 152.989 65.9223C152.415 65.3484 152.092 64.5703 152.091 63.7586V25.4929C152.091 24.6812 152.415 23.903 152.989 23.329C153.564 22.7551 154.343 22.4322 155.155 22.4313H183.094C183.907 22.4322 184.686 22.755 185.26 23.329C185.835 23.903 186.158 24.6812 186.159 25.4929V54.0024C186.155 57.4007 184.802 60.6587 182.397 63.0616C179.991 65.4646 176.73 66.8162 173.328 66.82Z" fill="white"/>
<path d="M180.307 29.8501H157.942C157.749 29.8501 157.563 29.7733 157.427 29.6367C157.29 29.5 157.213 29.3147 157.213 29.1215C157.213 28.9282 157.29 28.7429 157.427 28.6062C157.563 28.4696 157.749 28.3928 157.942 28.3928H180.307C180.501 28.3928 180.686 28.4696 180.823 28.6062C180.96 28.7429 181.037 28.9282 181.037 29.1215C181.037 29.3147 180.96 29.5 180.823 29.6367C180.686 29.7733 180.501 29.8501 180.307 29.8501Z" fill="#E4E4E4"/>
<path d="M180.307 32.7293H157.942C157.749 32.7289 157.564 32.652 157.428 32.5154C157.291 32.3788 157.214 32.1937 157.214 32.0007C157.214 31.8076 157.291 31.6225 157.428 31.4859C157.564 31.3493 157.749 31.2724 157.942 31.272H180.307C180.501 31.2724 180.686 31.3493 180.822 31.4859C180.959 31.6225 181.035 31.8076 181.035 32.0007C181.035 32.1937 180.959 32.3788 180.822 32.5154C180.686 32.652 180.501 32.7289 180.307 32.7293Z" fill="#E4E4E4"/>
<path d="M167.637 35.6085H157.942C157.749 35.6081 157.564 35.5311 157.428 35.3945C157.291 35.2579 157.214 35.0728 157.214 34.8798C157.214 34.6868 157.291 34.5017 157.428 34.3651C157.564 34.2285 157.749 34.1515 157.942 34.1511H167.637C167.83 34.1515 168.015 34.2285 168.152 34.3651C168.288 34.5017 168.365 34.6868 168.365 34.8798C168.365 35.0728 168.288 35.2579 168.152 35.3945C168.015 35.5311 167.83 35.6081 167.637 35.6085Z" fill="#E4E4E4"/>
<path d="M180.307 41.6387H157.942C157.749 41.6387 157.563 41.5619 157.427 41.4253C157.29 41.2886 157.213 41.1033 157.213 40.91C157.213 40.7168 157.29 40.5315 157.427 40.3948C157.563 40.2582 157.749 40.1814 157.942 40.1814H180.307C180.501 40.1814 180.686 40.2582 180.823 40.3948C180.96 40.5315 181.037 40.7168 181.037 40.91C181.037 41.1033 180.96 41.2886 180.823 41.4253C180.686 41.5619 180.501 41.6387 180.307 41.6387Z" fill="#E24E42"/>
<path d="M174.432 44.5179H157.942C157.749 44.5179 157.563 44.4411 157.427 44.3045C157.29 44.1678 157.213 43.9825 157.213 43.7892C157.213 43.596 157.29 43.4106 157.427 43.274C157.563 43.1373 157.749 43.0605 157.942 43.0605H174.432C174.626 43.0605 174.811 43.1373 174.948 43.274C175.085 43.4106 175.162 43.596 175.162 43.7892C175.162 43.9825 175.085 44.1678 174.948 44.3045C174.811 44.4411 174.626 44.5179 174.432 44.5179Z" fill="#E24E42"/>
<path d="M167.637 47.397H157.942C157.749 47.3967 157.564 47.3197 157.428 47.1831C157.291 47.0465 157.214 46.8614 157.214 46.6684C157.214 46.4754 157.291 46.2903 157.428 46.1536C157.564 46.017 157.749 45.9401 157.942 45.9397H167.637C167.83 45.9401 168.015 46.017 168.152 46.1536C168.288 46.2903 168.365 46.4754 168.365 46.6684C168.365 46.8614 168.288 47.0465 168.152 47.1831C168.015 47.3197 167.83 47.3967 167.637 47.397Z" fill="#E24E42"/>
<path d="M180.307 53.4272H157.942C157.749 53.4272 157.563 53.3505 157.427 53.2138C157.29 53.0772 157.213 52.8919 157.213 52.6986C157.213 52.5054 157.29 52.32 157.427 52.1834C157.563 52.0467 157.749 51.97 157.942 51.97H180.307C180.501 51.97 180.686 52.0467 180.823 52.1834C180.96 52.32 181.037 52.5054 181.037 52.6986C181.037 52.8919 180.96 53.0772 180.823 53.2138C180.686 53.3505 180.501 53.4272 180.307 53.4272Z" fill="#E4E4E4"/>
<path d="M180.307 56.3065H157.942C157.749 56.3065 157.563 56.2297 157.427 56.0931C157.29 55.9564 157.213 55.7711 157.213 55.5778C157.213 55.3845 157.29 55.1992 157.427 55.0625C157.563 54.9259 157.749 54.8491 157.942 54.8491H180.307C180.501 54.8491 180.686 54.9259 180.823 55.0625C180.96 55.1992 181.037 55.3845 181.037 55.5778C181.037 55.7711 180.96 55.9564 180.823 56.0931C180.686 56.2297 180.501 56.3065 180.307 56.3065Z" fill="#E4E4E4"/>
<path d="M167.637 59.1857H157.942C157.749 59.1854 157.564 59.1084 157.428 58.9718C157.291 58.8352 157.214 58.6501 157.214 58.4571C157.214 58.2641 157.291 58.0789 157.428 57.9423C157.564 57.8057 157.749 57.7288 157.942 57.7284H167.637C167.83 57.7288 168.015 57.8057 168.152 57.9423C168.288 58.0789 168.365 58.2641 168.365 58.4571C168.365 58.6501 168.288 58.8352 168.152 58.9718C168.015 59.1084 167.83 59.1854 167.637 59.1857Z" fill="#E4E4E4"/>
<path d="M38.0101 84.1833C38.2591 83.9127 38.4456 83.5909 38.5565 83.2405C38.6675 82.8901 38.7002 82.5197 38.6524 82.1553C38.6045 81.7909 38.4773 81.4415 38.2796 81.1315C38.082 80.8216 37.8187 80.5587 37.5083 80.3614L39.5706 71.6692L35.2059 73.2622L33.9167 81.2722C33.6195 81.8151 33.5319 82.448 33.6706 83.051C33.8092 83.654 34.1645 84.1852 34.6691 84.544C35.1736 84.9029 35.7924 85.0643 36.4082 84.9978C37.024 84.9313 37.594 84.6415 38.0101 84.1833Z" fill="#FFB8B8"/>
<path d="M48.5063 47.7582L46.7546 52.2578C46.7546 52.2578 47.5053 56.7575 46.2541 57.7574C45.0029 58.7574 45.5034 58.7574 45.5034 59.5073C45.4603 60.0452 45.3043 60.5681 45.0457 61.0419C44.787 61.5156 44.4314 61.9297 44.002 62.2571C43.001 63.0071 38.4967 78.2559 38.4967 78.2559H33.9924C34.1379 77.0939 34.1379 75.9182 33.9924 74.7562C33.7421 73.0063 34.7431 68.5066 35.2436 67.7567C35.7441 67.0068 35.2436 66.0068 35.2436 64.5069C35.2436 63.0071 36.2445 62.2571 36.2445 59.7573C36.2445 57.2575 39.2474 37.7589 38.9972 35.5091C38.7469 33.2592 41.4996 31.2594 41.4996 31.2594H44.002L48.5063 47.7582Z" fill="#276EF1"/>
<path d="M59.1046 57.3021L63.2679 75.8627L36.5885 74.2047L43.8433 55.9766L59.1046 57.3021Z" fill="#FFB8B8"/>
<path d="M0.950201 127.062C1.7444 129.93 2.98444 132.656 4.62503 135.14C8.29105 140.678 13.5375 144.912 19.3038 148.302C19.7033 148.539 20.1087 148.771 20.5141 149H24.559L24.7 148.677V148.674L24.8645 148.302L24.8851 148.258L24.8939 148.302L25.0555 149H27.0412C27.2057 148.768 27.3673 148.536 27.5259 148.302C27.7579 147.958 27.9812 147.612 28.1927 147.26C28.566 146.644 28.8996 146.005 29.1914 145.347C29.2267 145.273 29.2561 145.2 29.2854 145.126L29.1533 144.983L29.7025 142.582L28.5981 142.4L29.8083 138.671C29.7643 138.533 29.7143 138.395 29.6614 138.257C28.9829 136.54 27.708 135.258 26.1952 134.181C24.6383 133.069 22.8258 132.177 21.1603 131.249C20.3789 130.812 19.6093 130.351 18.8602 129.864V129.861C17.9026 129.242 16.9733 128.58 16.0725 127.875C16.0571 127.865 16.0424 127.854 16.0284 127.842C16.016 127.833 16.0042 127.824 15.9932 127.813C11.9546 124.661 8.53715 120.787 5.91455 116.389L5.91342 116.389L5.91246 116.388L5.91182 116.387L5.91161 116.386C5.82351 116.245 5.74129 116.104 5.65903 115.961V115.958C4.58503 114.112 3.66067 112.184 2.89482 110.191V110.188C2.83605 110.042 2.7832 109.895 2.72739 109.748C2.65101 109.877 2.57757 110.007 2.50707 110.136L2.50594 110.136L2.50497 110.136L2.50434 110.137L2.50413 110.139C-0.345257 115.23 -0.615519 121.363 0.950201 127.062Z" fill="#F0F0F0"/>
<path d="M2.50416 110.139C2.47562 112.856 2.75847 115.567 3.34718 118.22C3.61175 119.434 3.94124 120.633 4.33423 121.812C5.0971 124.118 6.09418 126.34 7.3099 128.444C7.37746 128.558 7.44211 128.67 7.5126 128.781V128.784C8.03217 129.659 8.59592 130.508 9.20168 131.326C10.1184 132.629 11.2509 133.766 12.5504 134.689C13.6119 135.389 14.8123 135.853 16.0696 136.047C16.3046 136.091 16.5455 136.123 16.7893 136.153C17.7616 136.267 18.7662 136.311 19.7297 136.517C20.2178 136.613 20.6929 136.766 21.1456 136.972C22.6967 137.69 23.5691 139.196 23.951 140.804C24.0185 141.086 24.0714 141.37 24.1125 141.655C24.4327 143.841 24.0802 146.112 24.2623 148.302C24.2829 148.533 24.3093 148.768 24.3416 149H24.559L24.7 148.677V148.674C24.6853 148.551 24.6736 148.428 24.6618 148.302C24.5913 147.226 24.5825 146.147 24.6354 145.071C24.6471 144.587 24.6559 144.099 24.6501 143.612C24.6442 143.222 24.6295 142.832 24.6001 142.444V142.441C24.5796 142.201 24.5561 141.963 24.5238 141.725C24.4305 140.998 24.251 140.283 23.9891 139.598C23.7336 138.892 23.3314 138.247 22.8089 137.707C22.2864 137.167 21.6556 136.743 20.9576 136.464C20.5313 136.304 20.092 136.181 19.6445 136.097C18.6605 135.909 17.6441 135.862 16.6542 135.739C16.5484 135.727 16.4426 135.713 16.3398 135.695C16.2076 135.674 16.0784 135.651 15.9492 135.628C14.6539 135.398 13.4305 134.868 12.3771 134.081C11.1253 133.091 10.0369 131.911 9.15171 130.583C8.66999 129.894 8.21171 129.189 7.7858 128.464C7.78581 128.464 7.78573 128.464 7.78559 128.463C7.78544 128.463 7.78523 128.463 7.78496 128.462C7.78468 128.462 7.78435 128.462 7.78399 128.462C7.78363 128.462 7.78325 128.461 7.78286 128.461C7.76228 128.426 7.74174 128.394 7.72117 128.359L7.71823 128.353C5.89123 125.234 4.55753 121.852 3.76431 118.326C3.73787 118.197 3.70848 118.068 3.67915 117.938C3.13394 115.393 2.87091 112.795 2.89483 110.191V110.188C2.89483 110.065 2.89774 109.945 2.90068 109.822C2.90655 109.569 2.51588 109.513 2.51004 109.766C2.5071 109.889 2.50416 110.012 2.5071 110.136C2.50671 110.136 2.50632 110.136 2.50596 110.136C2.5056 110.136 2.50527 110.136 2.505 110.136C2.50472 110.137 2.5045 110.137 2.50436 110.137C2.50422 110.138 2.50415 110.138 2.50416 110.139Z" fill="white"/>
<path d="M7.68034 128.702C6.56099 129.27 5.27599 129.422 4.05482 129.131C2.83365 128.839 1.75584 128.124 1.01385 127.112C0.864423 126.907 1.17664 126.666 1.32627 126.871C2.01546 127.815 3.01952 128.481 4.15723 128.749C5.29493 129.018 6.49134 128.872 7.53052 128.337C7.75648 128.221 7.90501 128.586 7.68034 128.702Z" fill="white"/>
<path d="M15.9114 135.744C16.7294 133.314 16.6004 130.666 15.5502 128.326C15.446 128.095 15.8114 127.945 15.9155 128.177C17.0038 130.613 17.1324 133.37 16.2757 135.897C16.1938 136.137 15.8301 135.984 15.9114 135.744Z" fill="white"/>
<path d="M3.56567 117.974C4.04461 117.845 4.48383 117.598 4.84388 117.257C5.20393 116.916 5.47354 116.491 5.6285 116.02C5.70723 115.779 6.07097 115.932 5.99276 116.172C5.81913 116.692 5.52079 117.161 5.12383 117.539C4.72686 117.917 4.24334 118.191 3.7155 118.339C3.66692 118.357 3.61326 118.356 3.56542 118.336C3.51758 118.316 3.47915 118.279 3.45795 118.232C3.43835 118.183 3.43868 118.129 3.45885 118.081C3.47902 118.033 3.5174 117.994 3.56567 117.974Z" fill="white"/>
<path d="M18.8602 129.861V129.864C18.9513 131.96 19.2136 134.044 19.6445 136.097V136.1C19.668 136.241 19.7003 136.379 19.7297 136.517C20.4386 139.691 21.4326 142.796 22.6995 145.793C23.0491 146.638 23.4153 147.474 23.7982 148.302C23.9039 148.536 24.0126 148.768 24.1242 149H24.559L24.7 148.677V148.674L24.8644 148.302L24.885 148.258L24.8938 148.302L25.0554 149H29.256L30.0726 148.302L31.2623 147.283L29.5997 145.47L29.3265 145.17L29.2854 145.126L29.1532 144.983L29.7025 142.582L28.598 142.4L29.8083 138.671L30.3811 136.907L30.525 136.464L31.3622 133.884L33.8885 134.357L34.2998 132.919C33.5426 131.166 32.9123 129.36 32.4139 127.517C32.4109 127.502 32.4051 127.49 32.4021 127.476C31.0675 122.51 30.6671 117.34 31.2213 112.228V112.225C31.2389 112.061 31.2594 111.893 31.283 111.732V111.726C31.5348 109.608 31.9592 107.513 32.552 105.464C32.5931 105.308 32.6401 105.156 32.6842 105.003C32.549 105.062 32.4169 105.118 32.2817 105.176L32.2788 105.179H32.2729C32.0585 105.273 31.844 105.373 31.6355 105.479C26.6241 107.911 22.9375 112.477 20.843 117.742C20.8372 117.756 20.8313 117.768 20.8254 117.783C19.7325 120.543 19.0813 123.457 18.8955 126.419C18.825 127.565 18.8132 128.714 18.8602 129.861Z" fill="#F0F0F0"/>
<path d="M26.483 149H26.9472C27.0941 148.762 27.2527 148.53 27.4113 148.302C27.6639 147.946 27.9244 147.599 28.1927 147.26C28.4248 146.966 28.6568 146.676 28.8889 146.385C29.1297 146.083 29.3677 145.781 29.5998 145.47L29.3266 145.17C29.2825 145.229 29.2385 145.288 29.1914 145.346C28.4394 146.335 27.6258 147.286 26.9295 148.302C26.7738 148.53 26.624 148.762 26.483 149Z" fill="white"/>
<path d="M32.7817 105.167C32.7054 105.264 32.626 105.364 32.5526 105.464C31.9798 106.206 31.4383 106.972 30.9282 107.761C30.0196 109.154 29.2126 110.61 28.5135 112.119C28.4577 112.236 28.4019 112.357 28.349 112.477C26.853 115.773 25.8779 119.282 25.4585 122.877C25.4526 122.912 25.4497 122.944 25.4468 122.98C25.3498 123.819 25.2872 124.661 25.2588 125.506C25.1651 127.098 25.3227 128.694 25.7258 130.237C25.7846 130.439 25.8492 130.639 25.9197 130.832C26.0964 131.307 26.3177 131.764 26.5806 132.197C26.7696 132.513 26.9796 132.816 27.2093 133.104C27.3473 133.28 27.4913 133.453 27.644 133.62C27.7321 133.717 27.8232 133.814 27.9143 133.911C27.9906 133.984 28.0641 134.06 28.1405 134.134C28.9336 134.902 29.809 135.615 30.5257 136.464L30.3818 136.907C29.6915 136.032 28.8014 135.307 27.9995 134.544C27.496 134.071 27.0377 133.553 26.6306 132.995C26.5777 132.919 26.5219 132.842 26.4719 132.763C26.1998 132.366 25.9648 131.945 25.7699 131.504C25.67 131.284 25.579 131.058 25.4967 130.823C25.0168 129.306 24.7983 127.719 24.8505 126.128C24.8599 125.11 24.9207 124.092 25.0326 123.079C25.0443 122.947 25.059 122.818 25.0766 122.686C25.3745 120.276 25.9178 117.902 26.6981 115.602C27.6857 112.684 29.0442 109.905 30.7402 107.333C31.2249 106.596 31.7389 105.877 32.2824 105.176C32.3529 105.079 32.4263 104.985 32.5027 104.888C32.6583 104.689 32.9374 104.968 32.7817 105.167Z" fill="white"/>
<path d="M25.2164 123.116C23.9804 122.897 22.8628 122.245 22.0632 121.278C21.2636 120.311 20.8342 119.092 20.8515 117.838C20.8526 117.787 20.8736 117.738 20.91 117.702C20.9464 117.666 20.9954 117.646 21.0466 117.645C21.0978 117.644 21.1472 117.664 21.1845 117.699C21.2218 117.734 21.2439 117.782 21.2463 117.833C21.2281 119.001 21.6283 120.137 22.3747 121.035C23.1211 121.934 24.1645 122.537 25.3167 122.735C25.5671 122.778 25.4653 123.159 25.2164 123.116Z" fill="white"/>
<path d="M27.544 133.69C29.6617 132.242 31.1551 130.049 31.7265 127.55C31.7829 127.302 32.1647 127.403 32.1084 127.65C31.5089 130.25 29.9502 132.528 27.7431 134.031C27.5327 134.174 27.3347 133.832 27.544 133.69Z" fill="white"/>
<path d="M28.3964 112.076C28.8569 112.261 29.3561 112.328 29.8491 112.273C30.3422 112.217 30.8136 112.04 31.2212 111.757C31.4297 111.611 31.6275 111.953 31.4203 112.097C30.9686 112.408 30.4476 112.603 29.903 112.666C29.3584 112.729 28.8067 112.657 28.2961 112.458C28.2464 112.443 28.2041 112.41 28.178 112.365C28.1518 112.321 28.1437 112.268 28.1553 112.217C28.1688 112.167 28.2017 112.124 28.2469 112.097C28.292 112.071 28.3457 112.063 28.3964 112.076Z" fill="white"/>
<path d="M54.6618 142.966L57.6587 142.966L59.0846 131.418H54.6613L54.6618 142.966Z" fill="#FFB8B8"/>
<path d="M53.647 141.489L58.3845 141.207V143.234L62.8886 146.342C63.1111 146.495 63.2787 146.716 63.3668 146.971C63.455 147.226 63.4591 147.503 63.3787 147.761C63.2982 148.019 63.1374 148.244 62.9196 148.404C62.7018 148.564 62.4385 148.651 62.1682 148.651H56.528L55.5558 146.645L55.1763 148.651H53.0497L53.647 141.489Z" fill="#2F2E41"/>
<path d="M26.3369 141.477L29.2659 142.111L33.1097 131.128L28.7871 130.192L26.3369 141.477Z" fill="#FFB8B8"/>
<path d="M25.6585 139.819L30.3483 140.546L29.918 142.527L33.6602 146.518C33.845 146.715 33.962 146.966 33.994 147.234C34.0259 147.503 33.9712 147.774 33.8379 148.009C33.7046 148.244 33.4995 148.43 33.2527 148.54C33.006 148.651 32.7303 148.679 32.4661 148.622L26.9542 147.427L26.4298 145.261L25.6332 147.141L23.5549 146.691L25.6585 139.819Z" fill="#2F2E41"/>
<path d="M5.2301 148.651C5.22997 148.697 5.23891 148.742 5.25643 148.785C5.27395 148.827 5.2997 148.866 5.33219 148.898C5.36468 148.93 5.40327 148.956 5.44575 148.974C5.48822 148.991 5.53374 149 5.57969 149H87.9153C88.008 149 88.097 148.963 88.1625 148.898C88.2281 148.832 88.2649 148.743 88.2649 148.651C88.2649 148.558 88.2281 148.469 88.1625 148.404C88.097 148.338 88.008 148.302 87.9153 148.302H5.57969C5.53374 148.301 5.48822 148.31 5.44575 148.328C5.40327 148.345 5.36468 148.371 5.33219 148.403C5.2997 148.436 5.27396 148.474 5.25644 148.517C5.23892 148.559 5.22997 148.605 5.2301 148.651Z" fill="#CCCCCC"/>
<path d="M63.9491 91.3833C61.8458 102.931 61.32 107.916 61.32 107.916C61.32 107.916 62.8974 109.753 61.8458 110.804C60.7942 111.854 61.8458 113.952 61.8458 113.952L59.0928 135.914L58.5053 139.142L52.9921 138.364L53.8053 135.327L52.3899 114.217C52.3899 114.217 51.3383 112.115 51.8641 111.59C52.3899 111.065 51.3383 107.916 51.3383 107.916L50.0253 82.9848L41.8795 110.278C41.8795 110.278 42.6697 111.329 41.8795 112.115C41.0923 112.902 39.5177 116.84 39.5177 116.84L33.5364 132.686L32.3614 135.033L31.7363 134.737L28.9867 134.221L28.4815 134.127L27.5826 133.957L27.0039 133.848L26.8071 133.813L25.8553 133.634L26.1432 132.358L28.2489 129.164L30.3909 113.503L30.4849 113.084L30.5847 112.641C30.5847 112.641 30.0589 111.329 30.8462 110.54C31.0765 110.299 31.2447 110.006 31.3363 109.686C31.4279 109.366 31.4402 109.028 31.372 108.703C31.3462 108.675 31.3226 108.646 31.3015 108.615C31.2085 108.487 31.1443 108.341 31.1135 108.186C31.043 107.858 31.1047 107.397 31.6364 106.866C31.7861 106.707 31.9118 106.527 32.0094 106.332C32.8084 104.82 33.2109 101.619 33.2109 101.619C33.2109 101.619 33.9217 76.2619 36.2483 72.3883C36.3716 72.1859 38.8414 68.2987 38.9707 68.2194C41.5968 66.6466 62.0929 68.5256 62.0929 68.5256C62.0929 68.5256 63.3322 71.8513 63.388 72.1976C63.6906 74.1432 65.7321 81.588 63.9491 91.3833Z" fill="#2F2E41"/>
<path d="M85.218 35.0082C85.1719 35.3728 85.0463 35.7228 84.8501 36.0337C84.6539 36.3446 84.3919 36.6087 84.0824 36.8074C83.773 37.0062 83.4237 37.1347 83.0592 37.1841C82.6946 37.2334 82.3237 37.2022 81.9725 37.0928L76.6592 44.278L75.059 39.9198L80.3499 33.7648C80.573 33.1876 81.0002 32.7122 81.5507 32.4287C82.1012 32.1452 82.7367 32.0732 83.3368 32.2265C83.9368 32.3797 84.4598 32.7476 84.8065 33.2602C85.1532 33.7729 85.2997 34.3949 85.218 35.0082Z" fill="#FFB8B8"/>
<path d="M36.7366 65.4433C36.2495 65.4433 35.9728 65.3479 35.8656 65.1433C35.7084 64.8429 35.9812 64.4506 36.2971 63.9961C36.5314 63.6994 36.7163 63.3668 36.8444 63.0112C37.0333 62.2563 38.3083 43.1896 37.5457 39.3799C37.3693 38.4984 37.5212 37.3685 37.9969 36.0216C39.2966 32.3432 41.0706 31.2126 44.6046 28.9608C44.8915 28.7779 45.1902 28.587 45.5008 28.3879C45.9025 28.13 45.8802 27.2748 45.8565 26.3693C45.8302 25.3629 45.803 24.322 46.2965 23.6715L46.3287 23.6291L46.3805 23.6171C47.5743 23.3414 51.5894 22.8296 53.9672 23.6208L54.0001 23.632L54.0246 23.6563C54.5894 24.2206 54.6409 25.3136 54.6907 26.3704C54.7314 27.2382 54.77 28.0575 55.0896 28.4134C57.5327 31.1338 60.3035 31.0808 60.3316 31.0802L60.4689 31.0762L60.4825 31.2126C61.5452 42.0109 63.2584 58.3091 63.6224 58.9504C63.6415 58.9798 63.6521 59.0138 63.6532 59.0488C63.6542 59.0837 63.6457 59.1183 63.6285 59.1487C63.094 60.1463 38.5725 65.4433 36.7366 65.4433Z" fill="#276EF1"/>
<path d="M52.6942 20.5605C56.6961 20.5605 59.9403 17.3196 59.9403 13.3219C59.9403 9.32409 56.6961 6.08325 52.6942 6.08325C48.6923 6.08325 45.4481 9.32409 45.4481 13.3219C45.4481 17.3196 48.6923 20.5605 52.6942 20.5605Z" fill="#FFB8B8"/>
<path d="M57.5355 26.5537C57.192 26.0637 55.4499 20.078 54.6865 18.2407C54.6084 18.6356 53.7331 20.1665 53.7126 20.5739L53.705 20.7248L53.555 20.7442C53.3293 20.773 47.9999 21.4192 45.2264 18.2775C43.5832 16.4165 43.2105 13.6252 44.1173 9.97936C43.9524 9.94702 43.7943 9.88622 43.6503 9.79967C43.4105 9.63385 43.2097 9.41776 43.0621 9.16647C42.9145 8.91518 42.8235 8.63473 42.7955 8.3447L42.6419 8.38583C41.8599 8.59658 40.9778 8.87547 40.408 9.5192C39.7737 10.2351 39.6608 11.2079 39.541 12.2376C39.4943 12.7293 39.4167 13.2174 39.3086 13.6993C38.9222 15.2567 37.8343 16.7153 36.0752 18.0349C34.3042 19.3635 32.4985 20.1236 30.7083 20.2936C28.5938 20.4951 26.5546 19.8011 25.2552 18.4386C23.8062 16.9196 23.4272 14.5824 24.3537 12.8815L24.5029 12.6076L24.6667 12.8731C25.4915 14.2103 27.2937 14.9326 29.0499 14.629C30.5556 14.3688 32.0483 13.4137 33.253 11.9397C34.3528 10.5941 35.1113 9.00501 35.8449 7.46814C36.5911 5.90549 37.3625 4.28954 38.4738 2.91841C39.7272 1.37183 41.2915 0.361831 42.8785 0.0741222C44.0343 -0.13452 45.0656 0.102004 45.7084 0.724388C46.1626 1.19207 46.4316 1.80841 46.4656 2.45913C46.8609 2.37089 47.273 2.39454 47.6556 2.52744C48.0246 2.67741 48.3461 2.92432 48.586 3.24199C48.8259 3.55967 48.9753 3.93628 49.0184 4.33191C51.347 3.10833 54.4289 3.30744 56.0228 4.22547C56.6902 4.60991 57.0735 5.09408 57.1415 5.6342C59.0241 5.73922 61.049 7.57122 61.049 10.1668V10.3476H60.8681C59.3781 10.3476 58.0177 11.2036 57.2291 12.6374C56.7661 13.473 56.537 14.4178 56.5658 15.3724C56.5946 16.327 56.8802 17.2562 57.3927 18.0625C57.9506 18.9176 58.3314 19.8756 58.5129 20.8801C58.6943 21.8846 58.6727 22.9151 58.4494 23.9111L57.7695 26.8873L57.5355 26.5537Z" fill="#2F2E41"/>
<path d="M65.8536 53.6254L61.0772 50.9414C52.748 45.1741 50.6963 40.5941 50.4399 37.7663C50.1662 34.7489 51.7754 33.0986 51.8441 33.0301L51.8812 33.0029L56.187 30.8051C56.7339 30.526 57.334 30.3662 57.9474 30.3363C58.5608 30.3064 59.1736 30.4071 59.7452 30.6318C60.3167 30.8564 60.8339 31.1999 61.2625 31.6393C61.691 32.0788 62.0212 32.6042 62.2311 33.1808L66.2138 44.123L70.6294 40.8695L72.5126 40.1282L74.0321 38.0984L78.2054 35.6668L81.3057 38.4543L77.4068 46.2439L75.2406 46.795L74.7812 47.9771L74.7403 48.0031L65.8536 53.6254Z" fill="#276EF1"/>
</g>
<defs>
<clipPath id="clip0_41_1721">
<rect width="230.644" height="149" fill="white"/>
</clipPath>
</defs>
</svg>
