<svg width="53" height="53" viewBox="0 0 53 53" fill="none" xmlns="http://www.w3.org/2000/svg">
<path d="M48.5834 13.8021V25.0646C48.5834 27.8691 47.6559 30.2321 45.9997 31.8663C44.3655 33.5225 42.0026 34.45 39.198 34.45V38.447C39.198 39.9487 37.5196 40.8542 36.283 40.015L34.1409 38.6016C34.3397 37.9171 34.428 37.1662 34.428 36.3712V27.3834C34.428 22.8784 31.4247 19.875 26.9197 19.875H11.9251C11.6159 19.875 11.3288 19.8971 11.0417 19.9192V13.8021C11.0417 8.17085 14.7959 4.41669 20.4272 4.41669H39.198C44.8292 4.41669 48.5834 8.17085 48.5834 13.8021Z" stroke="#292D32" stroke-width="3" stroke-miterlimit="10" stroke-linecap="round" stroke-linejoin="round"/>
<path d="M34.428 27.3834V36.3712C34.428 37.1662 34.3397 37.917 34.1409 38.6016C33.3238 41.8479 30.6297 43.8796 26.9197 43.8796H20.913L14.2438 48.3183C13.2501 49.0029 11.9251 48.2742 11.9251 47.0817V43.8796C9.67257 43.8796 7.7955 43.1288 6.49259 41.8258C5.16759 40.5008 4.41675 38.6237 4.41675 36.3712V27.3834C4.41675 23.1876 7.02258 20.2946 11.0417 19.9192C11.3288 19.8971 11.6159 19.875 11.9251 19.875H26.9197C31.4247 19.875 34.428 22.8784 34.428 27.3834Z" stroke="#292D32" stroke-width="3" stroke-miterlimit="10" stroke-linecap="round" stroke-linejoin="round"/>
</svg>
