<svg width="53" height="53" viewBox="0 0 53 53" fill="none" xmlns="http://www.w3.org/2000/svg">
<path d="M47.8325 23.055L45.6683 32.2858C43.8133 40.2579 40.1475 43.4821 33.2575 42.8196C32.1533 42.7312 30.9608 42.5325 29.68 42.2233L25.97 41.34C16.7612 39.1537 13.9125 34.6046 16.0767 25.3737L18.2408 16.1208C18.6825 14.2437 19.2125 12.6096 19.875 11.2625C22.4587 5.91833 26.8533 4.48291 34.2292 6.2275L37.9171 7.08875C47.17 9.25291 49.9967 13.8242 47.8325 23.055Z" stroke="#292D32" stroke-width="3" stroke-linecap="round" stroke-linejoin="round"/>
<path d="M33.2575 42.8196C31.8884 43.7471 30.1659 44.52 28.0679 45.2046L24.5788 46.3529C15.8117 49.1796 11.1963 46.8167 8.34752 38.0496L5.52085 29.3267C2.69419 20.5596 5.03502 15.9221 13.8021 13.0954L17.2913 11.9471C18.1967 11.66 19.0579 11.4171 19.875 11.2625C19.2125 12.6096 18.6825 14.2438 18.2409 16.1208L16.0767 25.3738C13.9125 34.6046 16.7613 39.1538 25.97 41.34L29.68 42.2233C30.9609 42.5325 32.1534 42.7313 33.2575 42.8196Z" stroke="#292D32" stroke-width="3" stroke-linecap="round" stroke-linejoin="round"/>
<path d="M27.9133 18.8371L38.6237 21.5533" stroke="#292D32" stroke-width="3" stroke-linecap="round" stroke-linejoin="round"/>
<path d="M25.7493 27.3834L32.1534 29.0175" stroke="#292D32" stroke-width="3" stroke-linecap="round" stroke-linejoin="round"/>
</svg>
