<svg width="230" height="166" viewBox="0 0 230 166" fill="none" xmlns="http://www.w3.org/2000/svg">
<g clip-path="url(#clip0_41_1999)">
<path d="M229.469 164.727H0.332082C0.244008 164.727 0.159542 164.692 0.0972643 164.63C0.0349868 164.567 0 164.483 0 164.395C0 164.307 0.0349868 164.222 0.0972643 164.16C0.159542 164.098 0.244008 164.063 0.332082 164.063H229.469C229.557 164.063 229.641 164.098 229.703 164.16C229.766 164.222 229.801 164.307 229.801 164.395C229.801 164.483 229.766 164.567 229.703 164.63C229.641 164.692 229.557 164.727 229.469 164.727Z" fill="#CCCCCC"/>
<path d="M206.789 106.811H71.9637C71.3912 106.811 70.8422 107.039 70.4374 107.443C70.0326 107.848 69.8052 108.397 69.8052 108.97C69.8052 109.542 70.0326 110.091 70.4374 110.496C70.8422 110.901 71.3912 111.128 71.9637 111.128H75.7826V162.767C75.7826 163.34 76.0101 163.889 76.4149 164.293C76.8197 164.698 77.3687 164.926 77.9412 164.926C78.5137 164.926 79.0627 164.698 79.4675 164.293C79.8723 163.889 80.0997 163.34 80.0997 162.767L80.1325 111.128H198.321V162.767C198.321 163.34 198.548 163.889 198.953 164.293C199.358 164.698 199.907 164.926 200.479 164.926C201.052 164.926 201.601 164.698 202.006 164.293C202.411 163.889 202.638 163.34 202.638 162.767V112.267L203.266 111.128H206.789C207.361 111.128 207.91 110.901 208.315 110.496C208.72 110.091 208.947 109.542 208.947 108.97C208.947 108.397 208.72 107.848 208.315 107.443C207.91 107.039 207.361 106.811 206.789 106.811Z" fill="#CCCCCC"/>
<path d="M146.712 107.941H105.872C105.081 107.94 104.323 107.625 103.764 107.066C103.205 106.507 102.89 105.749 102.889 104.958V82.4732C102.89 81.6824 103.205 80.9243 103.764 80.3651C104.323 79.8059 105.081 79.4914 105.872 79.4905H146.712C147.503 79.4914 148.261 79.8059 148.82 80.3651C149.379 80.9243 149.694 81.6824 149.695 82.4732V104.958C149.694 105.749 149.379 106.507 148.82 107.066C148.261 107.625 147.503 107.94 146.712 107.941Z" fill="#3F3D56"/>
<path d="M146.712 81.7861H105.872C105.69 81.7865 105.515 81.8591 105.386 81.9879C105.257 82.1167 105.185 82.2914 105.185 82.4735V104.959C105.185 105.141 105.257 105.316 105.386 105.444C105.515 105.573 105.69 105.646 105.872 105.646H146.712C146.894 105.646 147.068 105.573 147.197 105.444C147.326 105.316 147.398 105.141 147.399 104.959V82.4735C147.398 82.2914 147.326 82.1167 147.197 81.9879C147.068 81.8591 146.894 81.7865 146.712 81.7861Z" fill="white"/>
<path d="M129.775 97.7056C129.775 97.7056 124.886 96.579 122.197 98.6444C119.508 100.71 125.619 105.404 125.619 105.404L129.775 97.7056Z" fill="#2F2E41"/>
<path d="M126.531 95.577C129.078 95.577 131.143 93.5123 131.143 90.9654C131.143 88.4185 129.078 86.3538 126.531 86.3538C123.984 86.3538 121.92 88.4185 121.92 90.9654C121.92 93.5123 123.984 95.577 126.531 95.577Z" fill="#A0616A"/>
<path d="M122.965 84.4916C123.273 83.9696 123.719 83.5428 124.253 83.2582C124.788 82.9737 125.391 82.8424 125.996 82.8791C126.629 82.9584 127.246 83.1312 127.828 83.3918L130.842 84.5678C131.622 84.8721 132.477 85.2448 132.815 86.0107C133.13 86.7215 132.895 87.5425 132.658 88.2825L131.53 91.8004C131.405 91.0042 131.191 90.2247 130.891 89.4766C130.586 88.7235 130.035 88.0957 129.328 87.6953C128.545 87.2936 127.622 87.3019 126.743 87.3442C125.498 87.4041 124.145 87.5625 123.26 88.4407C122.79 88.9394 122.472 89.5612 122.342 90.2337C122.214 90.9026 122.149 91.5822 122.149 92.2632C121.639 91.3856 121.209 90.4636 120.865 89.5085C120.581 88.7973 120.42 88.0435 120.387 87.2786C120.357 86.5073 120.613 85.7521 121.106 85.1576C121.356 84.8671 121.682 84.6523 122.048 84.5372C122.413 84.4222 122.804 84.4115 123.175 84.5064L122.965 84.4916Z" fill="#2F2E41"/>
<path d="M137.543 101.704C137.499 101.549 137.411 101.409 137.289 101.303C137.166 101.198 137.016 101.13 136.855 101.11C136.845 101.103 136.833 101.096 136.822 101.09L129.937 97.2319C129.741 97.1217 129.509 97.0916 129.291 97.1478C129.073 97.2039 128.885 97.3421 128.766 97.5335L126.883 100.582L124.047 97.746L124.002 97.7009C123.856 97.5554 123.664 97.4658 123.459 97.4478C123.254 97.4299 123.049 97.4848 122.881 97.6029L117.223 101.565C117.213 101.565 117.203 101.568 117.193 101.568C116.922 101.613 116.675 101.75 116.492 101.954C116.309 102.159 116.201 102.42 116.186 102.694L116.04 105.646H138.635L137.543 101.704Z" fill="#276EF1"/>
<path d="M150.153 105.188H145.794C145.794 105.066 145.746 104.949 145.66 104.863C145.574 104.777 145.457 104.729 145.335 104.729H143.959C143.837 104.729 143.72 104.777 143.634 104.863C143.548 104.949 143.5 105.066 143.5 105.188H142.123C142.123 105.066 142.075 104.949 141.989 104.863C141.903 104.777 141.786 104.729 141.664 104.729H140.287C140.166 104.729 140.049 104.777 139.963 104.863C139.877 104.949 139.829 105.066 139.829 105.188H138.452C138.452 105.066 138.404 104.949 138.318 104.863C138.232 104.777 138.115 104.729 137.993 104.729H136.616C136.495 104.729 136.378 104.777 136.292 104.863C136.206 104.949 136.158 105.066 136.158 105.188H134.781C134.781 105.066 134.733 104.949 134.647 104.863C134.561 104.777 134.444 104.729 134.322 104.729H132.945C132.824 104.729 132.707 104.777 132.621 104.863C132.535 104.949 132.487 105.066 132.487 105.188H131.11C131.11 105.066 131.062 104.949 130.976 104.863C130.89 104.777 130.773 104.729 130.651 104.729H129.274C129.153 104.729 129.036 104.777 128.95 104.863C128.864 104.949 128.816 105.066 128.816 105.188H127.439C127.439 105.066 127.391 104.949 127.305 104.863C127.218 104.777 127.102 104.729 126.98 104.729H125.603C125.482 104.729 125.365 104.777 125.279 104.863C125.193 104.949 125.145 105.066 125.145 105.188H123.768C123.768 105.066 123.72 104.949 123.634 104.863C123.547 104.777 123.431 104.729 123.309 104.729H121.932C121.811 104.729 121.694 104.777 121.608 104.863C121.522 104.949 121.474 105.066 121.474 105.188H120.097C120.097 105.066 120.049 104.949 119.963 104.863C119.876 104.777 119.76 104.729 119.638 104.729H118.261C118.14 104.729 118.023 104.777 117.937 104.863C117.851 104.949 117.803 105.066 117.803 105.188H116.426C116.426 105.066 116.378 104.949 116.292 104.863C116.205 104.777 116.089 104.729 115.967 104.729H114.59C114.469 104.729 114.352 104.777 114.266 104.863C114.18 104.949 114.132 105.066 114.132 105.188H112.755C112.755 105.066 112.707 104.949 112.62 104.863C112.534 104.777 112.418 104.729 112.296 104.729H110.919C110.798 104.729 110.681 104.777 110.595 104.863C110.509 104.949 110.461 105.066 110.461 105.188H109.084C109.084 105.066 109.036 104.949 108.949 104.863C108.863 104.777 108.747 104.729 108.625 104.729H107.248C107.127 104.729 107.01 104.777 106.924 104.863C106.838 104.949 106.789 105.066 106.789 105.188H102.43C102.065 105.188 101.716 105.333 101.458 105.592C101.2 105.85 101.056 106.2 101.056 106.564C101.056 106.929 101.2 107.279 101.458 107.537C101.716 107.795 102.065 107.94 102.43 107.941H150.153C150.518 107.941 150.869 107.796 151.127 107.538C151.385 107.28 151.53 106.929 151.53 106.564C151.53 106.199 151.385 105.849 151.127 105.591C150.869 105.333 150.518 105.188 150.153 105.188Z" fill="#3F3D56"/>
<path d="M95.3337 97.1932V106.334H72.4326C71.8191 106.355 71.2075 106.253 70.6343 106.033C70.0612 105.813 69.5382 105.48 69.0966 105.053C68.655 104.627 68.3038 104.115 68.0639 103.55C67.8241 102.985 67.7004 102.378 67.7004 101.764C67.7004 101.15 67.8241 100.542 68.0639 99.9768C68.3038 99.4117 68.655 98.9006 69.0966 98.4741C69.5382 98.0476 70.0612 97.7144 70.6343 97.4943C71.2075 97.2743 71.8191 97.1718 72.4326 97.1932H95.3337Z" fill="#F2F2F2"/>
<path d="M95.8963 106.264C95.8962 106.357 95.8592 106.446 95.7933 106.512C95.7274 106.578 95.6379 106.615 95.5447 106.615H72.0247C70.7473 106.615 69.5222 106.108 68.619 105.204C67.7157 104.301 67.2083 103.076 67.2083 101.799C67.2083 100.521 67.7157 99.2962 68.619 98.3929C69.5222 97.4896 70.7473 96.9822 72.0247 96.9822H95.5447C95.6379 96.9822 95.7274 97.0192 95.7933 97.0852C95.8592 97.1511 95.8963 97.2405 95.8963 97.3337C95.8963 97.427 95.8592 97.5164 95.7933 97.5823C95.7274 97.6483 95.6379 97.6853 95.5447 97.6853H72.0247C70.9345 97.6863 69.8892 98.1201 69.1186 98.8914C68.3479 99.6627 67.9151 100.708 67.9151 101.799C67.9151 102.889 68.3479 103.935 69.1186 104.706C69.8892 105.477 70.9345 105.911 72.0247 105.912H95.5447C95.6379 105.912 95.7273 105.949 95.7933 106.015C95.8592 106.081 95.8962 106.17 95.8963 106.264Z" fill="#276EF1"/>
<path d="M95.3337 99.3025H70.7239C70.7146 99.3026 70.7054 99.3008 70.6968 99.2973C70.6882 99.2938 70.6804 99.2886 70.6738 99.2821C70.6673 99.2755 70.662 99.2678 70.6585 99.2592C70.6549 99.2506 70.6531 99.2415 70.6531 99.2322C70.6531 99.2229 70.6549 99.2137 70.6585 99.2052C70.662 99.1966 70.6673 99.1888 70.6738 99.1823C70.6804 99.1758 70.6882 99.1706 70.6968 99.1671C70.7054 99.1636 70.7146 99.1618 70.7239 99.1619H95.3337C95.3523 99.162 95.37 99.1695 95.3831 99.1826C95.3962 99.1958 95.4035 99.2136 95.4035 99.2322C95.4035 99.2508 95.3962 99.2686 95.3831 99.2817C95.37 99.2949 95.3523 99.3024 95.3337 99.3025Z" fill="#CCCCCC"/>
<path d="M95.3337 100.99H70.7239C70.7146 100.99 70.7054 100.988 70.6968 100.985C70.6882 100.981 70.6804 100.976 70.6738 100.97C70.6673 100.963 70.662 100.955 70.6585 100.947C70.6549 100.938 70.6531 100.929 70.6531 100.92C70.6531 100.91 70.6549 100.901 70.6585 100.893C70.662 100.884 70.6673 100.876 70.6738 100.87C70.6804 100.863 70.6882 100.858 70.6968 100.855C70.7054 100.851 70.7146 100.849 70.7239 100.849H95.3337C95.3523 100.849 95.37 100.857 95.3831 100.87C95.3962 100.883 95.4035 100.901 95.4035 100.92C95.4035 100.938 95.3962 100.956 95.3831 100.969C95.37 100.982 95.3523 100.99 95.3337 100.99Z" fill="#CCCCCC"/>
<path d="M95.3337 102.678H70.7239C70.7146 102.678 70.7054 102.676 70.6968 102.673C70.6882 102.669 70.6804 102.664 70.6738 102.657C70.6673 102.651 70.662 102.643 70.6585 102.634C70.6549 102.626 70.6531 102.617 70.6531 102.607C70.6531 102.598 70.6549 102.589 70.6585 102.58C70.662 102.572 70.6673 102.564 70.6738 102.558C70.6804 102.551 70.6882 102.546 70.6968 102.542C70.7054 102.539 70.7146 102.537 70.7239 102.537H95.3337C95.3523 102.537 95.37 102.545 95.3831 102.558C95.3962 102.571 95.4035 102.589 95.4035 102.607C95.4035 102.626 95.3962 102.644 95.3831 102.657C95.37 102.67 95.3523 102.678 95.3337 102.678Z" fill="#CCCCCC"/>
<path d="M95.3337 104.365H70.7239C70.7146 104.365 70.7054 104.364 70.6968 104.36C70.6882 104.357 70.6804 104.351 70.6738 104.345C70.6673 104.338 70.662 104.331 70.6585 104.322C70.6549 104.313 70.6531 104.304 70.6531 104.295C70.6531 104.286 70.6549 104.276 70.6585 104.268C70.662 104.259 70.6673 104.252 70.6738 104.245C70.6804 104.239 70.6882 104.233 70.6968 104.23C70.7054 104.226 70.7146 104.225 70.7239 104.225H95.3337C95.3523 104.225 95.37 104.232 95.3831 104.245C95.3962 104.259 95.4035 104.276 95.4035 104.295C95.4035 104.313 95.3962 104.331 95.3831 104.344C95.37 104.358 95.3523 104.365 95.3337 104.365Z" fill="#CCCCCC"/>
<path d="M91.0166 87.5628V96.7036H68.1155C67.5019 96.725 66.8903 96.6226 66.3172 96.4025C65.7441 96.1824 65.2211 95.8492 64.7795 95.4227C64.3379 94.9962 63.9867 94.4851 63.7468 93.92C63.5069 93.3548 63.3833 92.7472 63.3833 92.1332C63.3833 91.5193 63.5069 90.9116 63.7468 90.3465C63.9867 89.7813 64.3379 89.2703 64.7795 88.8438C65.2211 88.4173 65.7441 88.084 66.3172 87.864C66.8903 87.6439 67.5019 87.5415 68.1155 87.5628H91.0166Z" fill="#F2F2F2"/>
<path d="M91.5791 96.6332C91.5791 96.7265 91.5421 96.8159 91.4761 96.8818C91.4102 96.9477 91.3208 96.9848 91.2276 96.9848H67.7076C67.0751 96.9848 66.4488 96.8602 65.8644 96.6182C65.2801 96.3761 64.7491 96.0213 64.3018 95.5741C63.8546 95.1268 63.4998 94.5959 63.2577 94.0115C63.0157 93.4271 62.8911 92.8008 62.8911 92.1683C62.8911 91.5358 63.0157 90.9095 63.2577 90.3251C63.4998 89.7407 63.8546 89.2098 64.3018 88.7625C64.7491 88.3153 65.2801 87.9605 65.8644 87.7184C66.4488 87.4764 67.0751 87.3518 67.7076 87.3518H91.2276C91.3208 87.3518 91.4102 87.3888 91.4762 87.4548C91.5421 87.5207 91.5791 87.6101 91.5791 87.7034C91.5791 87.7966 91.5421 87.886 91.4762 87.952C91.4102 88.0179 91.3208 88.0549 91.2276 88.0549H67.7076C66.6173 88.0559 65.572 88.4897 64.8014 89.261C64.0308 90.0323 63.5979 91.078 63.5979 92.1683C63.5979 93.2586 64.0308 94.3043 64.8014 95.0756C65.572 95.8469 66.6173 96.2807 67.7076 96.2817H91.2276C91.3208 96.2817 91.4102 96.3187 91.4761 96.3847C91.542 96.4506 91.5791 96.54 91.5791 96.6332Z" fill="#3F3D56"/>
<path d="M91.0166 89.6721H66.4067C66.3975 89.6722 66.3883 89.6704 66.3797 89.6669C66.3711 89.6634 66.3633 89.6582 66.3567 89.6517C66.3501 89.6452 66.3449 89.6374 66.3413 89.6288C66.3378 89.6203 66.3359 89.6111 66.3359 89.6018C66.3359 89.5925 66.3378 89.5834 66.3413 89.5748C66.3449 89.5662 66.3501 89.5585 66.3567 89.5519C66.3633 89.5454 66.3711 89.5402 66.3797 89.5367C66.3883 89.5332 66.3975 89.5314 66.4067 89.5315H91.0166C91.0351 89.5316 91.0529 89.5391 91.066 89.5523C91.0791 89.5654 91.0864 89.5833 91.0864 89.6018C91.0864 89.6204 91.0791 89.6382 91.066 89.6514C91.0529 89.6645 91.0351 89.672 91.0166 89.6721Z" fill="#CCCCCC"/>
<path d="M91.0166 91.3596H66.4067C66.3975 91.3597 66.3883 91.3579 66.3797 91.3544C66.3711 91.3509 66.3633 91.3457 66.3567 91.3392C66.3501 91.3327 66.3449 91.3249 66.3413 91.3163C66.3378 91.3078 66.3359 91.2986 66.3359 91.2893C66.3359 91.28 66.3378 91.2708 66.3413 91.2623C66.3449 91.2537 66.3501 91.246 66.3567 91.2394C66.3633 91.2329 66.3711 91.2277 66.3797 91.2242C66.3883 91.2207 66.3975 91.2189 66.4067 91.219H91.0166C91.0351 91.2191 91.0529 91.2266 91.066 91.2398C91.0791 91.2529 91.0864 91.2707 91.0864 91.2893C91.0864 91.3079 91.0791 91.3257 91.066 91.3389C91.0529 91.352 91.0351 91.3595 91.0166 91.3596Z" fill="#CCCCCC"/>
<path d="M91.0166 93.0474H66.4067C66.3975 93.0474 66.3883 93.0457 66.3797 93.0422C66.3711 93.0386 66.3633 93.0335 66.3567 93.0269C66.3501 93.0204 66.3449 93.0126 66.3413 93.0041C66.3378 92.9955 66.3359 92.9863 66.3359 92.9771C66.3359 92.9678 66.3378 92.9586 66.3413 92.95C66.3449 92.9415 66.3501 92.9337 66.3567 92.9272C66.3633 92.9206 66.3711 92.9155 66.3797 92.9119C66.3883 92.9084 66.3975 92.9067 66.4067 92.9067H91.0166C91.0351 92.9069 91.0529 92.9143 91.066 92.9275C91.0791 92.9407 91.0864 92.9585 91.0864 92.9771C91.0864 92.9956 91.0791 93.0134 91.066 93.0266C91.0529 93.0398 91.0351 93.0472 91.0166 93.0474Z" fill="#CCCCCC"/>
<path d="M91.0166 94.7349H66.4067C66.3975 94.7349 66.3883 94.7331 66.3797 94.7296C66.3711 94.7261 66.3633 94.721 66.3567 94.7144C66.3501 94.7079 66.3449 94.7001 66.3413 94.6916C66.3378 94.683 66.3359 94.6738 66.3359 94.6646C66.3359 94.6553 66.3378 94.6461 66.3413 94.6375C66.3449 94.629 66.3501 94.6212 66.3567 94.6147C66.3633 94.6081 66.3711 94.603 66.3797 94.5994C66.3883 94.5959 66.3975 94.5942 66.4067 94.5942H91.0166C91.0351 94.5944 91.0529 94.6018 91.066 94.615C91.0791 94.6282 91.0864 94.646 91.0864 94.6646C91.0864 94.6831 91.0791 94.7009 91.066 94.7141C91.0529 94.7273 91.0351 94.7347 91.0166 94.7349Z" fill="#CCCCCC"/>
<path d="M117.658 138.825V130.855C117.658 130.502 117.518 130.165 117.269 129.915C117.019 129.666 116.682 129.526 116.329 129.526H86.1098C85.7575 129.526 85.4197 129.666 85.1706 129.915C84.9214 130.165 84.7815 130.502 84.7815 130.855V138.825H117.658Z" fill="#CCCCCC"/>
<path d="M117.658 141.813H84.7815V152.108H117.658V141.813Z" fill="#CCCCCC"/>
<path d="M84.7815 155.097V163.067C84.7815 163.419 84.9214 163.757 85.1706 164.006C85.4197 164.255 85.7575 164.395 86.1098 164.395H116.329C116.682 164.395 117.019 164.255 117.269 164.006C117.518 163.757 117.658 163.419 117.658 163.067V155.097H84.7815Z" fill="#CCCCCC"/>
<path d="M101.054 135.504C101.604 135.504 102.05 135.058 102.05 134.507C102.05 133.957 101.604 133.511 101.054 133.511C100.503 133.511 100.057 133.957 100.057 134.507C100.057 135.058 100.503 135.504 101.054 135.504Z" fill="white"/>
<path d="M101.054 148.787C101.604 148.787 102.05 148.341 102.05 147.791C102.05 147.24 101.604 146.794 101.054 146.794C100.503 146.794 100.057 147.24 100.057 147.791C100.057 148.341 100.503 148.787 101.054 148.787Z" fill="white"/>
<path d="M101.107 161.789C101.657 161.789 102.103 161.343 102.103 160.793C102.103 160.242 101.657 159.796 101.107 159.796C100.557 159.796 100.111 160.242 100.111 160.793C100.111 161.343 100.557 161.789 101.107 161.789Z" fill="white"/>
<path d="M113.93 120.439V129.58H91.0293C90.4158 129.601 89.8042 129.499 89.231 129.278C88.6579 129.058 88.1349 128.725 87.6933 128.299C87.2517 127.872 86.9005 127.361 86.6606 126.796C86.4207 126.231 86.2971 125.623 86.2971 125.009C86.2971 124.395 86.4207 123.788 86.6606 123.222C86.9005 122.657 87.2517 122.146 87.6933 121.72C88.1349 121.293 88.6579 120.96 89.231 120.74C89.8042 120.52 90.4158 120.417 91.0293 120.439H113.93Z" fill="#F2F2F2"/>
<path d="M114.493 129.509C114.493 129.603 114.456 129.692 114.39 129.758C114.324 129.824 114.234 129.861 114.141 129.861H90.6213C89.9884 129.862 89.3617 129.737 88.7769 129.496C88.192 129.254 87.6606 128.899 87.2129 128.452C86.7652 128.004 86.4101 127.473 86.1678 126.889C85.9255 126.304 85.8008 125.677 85.8008 125.045C85.8008 124.412 85.9255 123.785 86.1678 123.2C86.4101 122.616 86.7652 122.085 87.2129 121.637C87.6606 121.19 88.192 120.835 88.7769 120.594C89.3617 120.352 89.9884 120.228 90.6213 120.228H114.141C114.234 120.228 114.324 120.265 114.39 120.331C114.456 120.397 114.493 120.486 114.493 120.58C114.493 120.673 114.456 120.762 114.39 120.828C114.324 120.894 114.234 120.931 114.141 120.931H90.6213C89.531 120.932 88.4857 121.366 87.7151 122.137C86.9445 122.909 86.5116 123.954 86.5116 125.045C86.5116 126.135 86.9445 127.18 87.7151 127.952C88.4857 128.723 89.531 129.157 90.6213 129.158H114.141C114.234 129.158 114.324 129.195 114.39 129.261C114.456 129.327 114.493 129.416 114.493 129.509Z" fill="#FFB400"/>
<path d="M113.93 122.548H89.3206C89.3113 122.548 89.3021 122.547 89.2935 122.543C89.2849 122.54 89.2771 122.534 89.2705 122.528C89.2639 122.521 89.2587 122.514 89.2551 122.505C89.2516 122.496 89.2498 122.487 89.2498 122.478C89.2498 122.469 89.2516 122.46 89.2551 122.451C89.2587 122.442 89.2639 122.435 89.2705 122.428C89.2771 122.422 89.2849 122.416 89.2935 122.413C89.3021 122.409 89.3113 122.408 89.3206 122.408H113.93C113.949 122.408 113.967 122.415 113.98 122.428C113.993 122.442 114 122.459 114 122.478C114 122.497 113.993 122.514 113.98 122.528C113.967 122.541 113.949 122.548 113.93 122.548Z" fill="#CCCCCC"/>
<path d="M113.93 124.236H89.3206C89.3113 124.236 89.3021 124.234 89.2935 124.231C89.2849 124.227 89.2771 124.222 89.2705 124.215C89.2639 124.209 89.2587 124.201 89.2551 124.193C89.2516 124.184 89.2498 124.175 89.2498 124.166C89.2498 124.156 89.2516 124.147 89.2551 124.139C89.2587 124.13 89.2639 124.122 89.2705 124.116C89.2771 124.109 89.2849 124.104 89.2935 124.1C89.3021 124.097 89.3113 124.095 89.3206 124.095H113.93C113.949 124.095 113.967 124.103 113.98 124.116C113.993 124.129 114 124.147 114 124.166C114 124.184 113.993 124.202 113.98 124.215C113.967 124.228 113.949 124.236 113.93 124.236Z" fill="#CCCCCC"/>
<path d="M113.93 125.923H89.3206C89.3113 125.923 89.3021 125.922 89.2935 125.918C89.2849 125.915 89.2771 125.909 89.2705 125.903C89.2639 125.896 89.2587 125.889 89.2551 125.88C89.2516 125.871 89.2498 125.862 89.2498 125.853C89.2498 125.844 89.2516 125.835 89.2551 125.826C89.2587 125.817 89.2639 125.81 89.2705 125.803C89.2771 125.797 89.2849 125.791 89.2935 125.788C89.3021 125.784 89.3113 125.783 89.3206 125.783H113.93C113.949 125.783 113.967 125.79 113.98 125.803C113.993 125.817 114 125.834 114 125.853C114 125.872 113.993 125.889 113.98 125.903C113.967 125.916 113.949 125.923 113.93 125.923Z" fill="#CCCCCC"/>
<path d="M113.93 127.611H89.3206C89.3113 127.611 89.3021 127.609 89.2935 127.606C89.2849 127.602 89.2771 127.597 89.2705 127.59C89.2639 127.584 89.2587 127.576 89.2551 127.568C89.2516 127.559 89.2498 127.55 89.2498 127.541C89.2498 127.531 89.2516 127.522 89.2551 127.514C89.2587 127.505 89.2639 127.497 89.2705 127.491C89.2771 127.484 89.2849 127.479 89.2935 127.475C89.3021 127.472 89.3113 127.47 89.3206 127.47H113.93C113.949 127.47 113.967 127.478 113.98 127.491C113.993 127.504 114 127.522 114 127.541C114 127.559 113.993 127.577 113.98 127.59C113.967 127.603 113.949 127.611 113.93 127.611Z" fill="#CCCCCC"/>
<path d="M83.0571 60.7781V2.49773C83.0579 1.83553 83.3213 1.20066 83.7895 0.732403C84.2578 0.264151 84.8926 0.000753241 85.5549 0H131.624C132.286 0.000757626 132.921 0.264157 133.389 0.732408C133.858 1.20066 134.121 1.83553 134.122 2.49773V60.7781C134.121 61.4403 133.858 62.0752 133.389 62.5434C132.921 63.0117 132.286 63.2751 131.624 63.2758H85.5549C84.8926 63.2751 84.2578 63.0117 83.7895 62.5434C83.3213 62.0752 83.0579 61.4403 83.0571 60.7781ZM85.5549 0.555052C85.0398 0.555629 84.546 0.76049 84.1818 1.12469C83.8176 1.48889 83.6128 1.98268 83.6122 2.49773V60.7781C83.6128 61.2932 83.8176 61.787 84.1818 62.1511C84.546 62.5153 85.0398 62.7202 85.5549 62.7208H131.624C132.139 62.7202 132.633 62.5153 132.997 62.1511C133.361 61.787 133.566 61.2932 133.567 60.7781V2.49773C133.566 1.98268 133.361 1.48889 132.997 1.12469C132.633 0.76049 132.139 0.55563 131.624 0.555052H85.5549Z" fill="#E6E6E6"/>
<path d="M111.173 26.765V14.7982C111.173 14.4671 111.305 14.1496 111.539 13.9155C111.773 13.6814 112.091 13.5497 112.422 13.5493H122.562C122.894 13.5497 123.211 13.6814 123.445 13.9155C123.679 14.1496 123.811 14.4671 123.811 14.7982V26.765C123.811 27.0961 123.679 27.4135 123.445 27.6477C123.211 27.8818 122.894 28.0135 122.562 28.0139H112.422C112.091 28.0135 111.773 27.8818 111.539 27.6477C111.305 27.4135 111.173 27.0961 111.173 26.765Z" fill="#276EF1"/>
<path d="M91.4685 32.3155V20.3487C91.4689 20.0176 91.6006 19.7002 91.8347 19.466C92.0688 19.2319 92.3863 19.1002 92.7174 19.0999H102.858C103.189 19.1002 103.507 19.2319 103.741 19.466C103.975 19.7002 104.107 20.0176 104.107 20.3487V32.3155C104.107 32.6466 103.975 32.9641 103.741 33.1982C103.507 33.4323 103.189 33.564 102.858 33.5644H92.7174C92.3863 33.564 92.0688 33.4323 91.8347 33.1982C91.6006 32.9641 91.4689 32.6466 91.4685 32.3155Z" fill="#CCCCCC"/>
<path d="M107.288 49.2447V37.2779C107.288 36.9468 107.42 36.6294 107.654 36.3952C107.888 36.1611 108.205 36.0294 108.536 36.0291H118.677C119.008 36.0294 119.326 36.1611 119.56 36.3952C119.794 36.6294 119.926 36.9468 119.926 37.2779V49.2447C119.926 49.5758 119.794 49.8933 119.56 50.1274C119.326 50.3615 119.008 50.4932 118.677 50.4936H108.536C108.205 50.4932 107.888 50.3615 107.654 50.1274C107.42 49.8933 107.288 49.5758 107.288 49.2447Z" fill="#FFB400"/>
<path d="M167.888 103.956H157.454C157.355 103.956 157.258 103.979 157.169 104.022L154.535 105.341C154.449 105.378 154.375 105.439 154.323 105.518C154.271 105.596 154.243 105.688 154.243 105.782C154.243 105.877 154.271 105.969 154.323 106.047C154.375 106.126 154.449 106.187 154.535 106.224L157.169 107.542C157.258 107.586 157.355 107.609 157.454 107.609H167.888C168.032 107.617 168.173 107.569 168.282 107.473C168.39 107.378 168.456 107.244 168.466 107.101V104.464C168.456 104.32 168.39 104.187 168.282 104.091C168.173 103.996 168.032 103.948 167.888 103.956Z" fill="#3F3D56"/>
<path d="M168.466 104.464V107.101C168.456 107.244 168.39 107.378 168.282 107.473C168.173 107.569 168.032 107.617 167.888 107.609H165.81V103.956H167.888C168.032 103.948 168.173 103.996 168.282 104.091C168.39 104.187 168.456 104.32 168.466 104.464Z" fill="#276EF1"/>
<path d="M167.81 84.2302C168.282 84.0263 168.793 83.9245 169.307 83.9315C169.822 83.9385 170.329 84.0542 170.796 84.271C171.263 84.4878 171.679 84.8008 172.016 85.1895C172.354 85.5782 172.605 86.0338 172.755 86.5264C172.801 86.6826 172.837 86.8418 172.861 87.003L187.452 94.2384L190.829 92.0007L195.03 96.8375L189.874 101.025C189.254 101.525 188.49 101.811 187.694 101.842C186.898 101.872 186.114 101.646 185.457 101.195L170.653 90.9579C170.543 91.0046 170.431 91.0456 170.316 91.0808C169.823 91.2298 169.305 91.2731 168.794 91.2077C168.283 91.1423 167.792 90.9697 167.353 90.7013C166.914 90.4329 166.536 90.0747 166.245 89.6502C165.954 89.2256 165.756 88.7444 165.663 88.2379C165.636 88.0909 165.618 87.9424 165.61 87.7931C165.568 87.0456 165.757 86.3034 166.151 85.6665C166.544 85.0295 167.123 84.5283 167.81 84.2302Z" fill="#FFB8B8"/>
<path d="M198.2 128.779H182.257C182.257 129.237 165.825 129.609 165.825 129.609C165.568 129.803 165.332 130.026 165.125 130.273C164.501 131.017 164.16 131.958 164.162 132.93V133.594C164.162 134.695 164.599 135.75 165.378 136.529C166.156 137.307 167.212 137.744 168.313 137.745H198.2C199.301 137.744 200.356 137.306 201.134 136.528C201.912 135.75 202.35 134.694 202.351 133.594V132.93C202.35 131.829 201.912 130.774 201.134 129.996C200.355 129.218 199.3 128.78 198.2 128.779Z" fill="#3F3D56"/>
<path d="M180.857 165.475H185.175V137.58H180.857V165.475Z" fill="#3F3D56"/>
<path d="M168.571 165.323C168.571 165.79 175.112 165.504 183.182 165.504C191.252 165.504 197.794 165.79 197.794 165.323C197.794 164.857 191.252 161.158 183.182 161.158C175.112 161.158 168.571 164.857 168.571 165.323Z" fill="#3F3D56"/>
<path d="M172.468 162.054L168.397 162.053L166.46 151.494L172.468 151.494L172.468 162.054Z" fill="#FFB8B8"/>
<path d="M173.506 166L160.379 165.999V165.833C160.379 165.162 160.511 164.498 160.768 163.878C161.024 163.258 161.401 162.695 161.875 162.22C162.35 161.746 162.913 161.37 163.533 161.113C164.153 160.856 164.817 160.724 165.488 160.724H165.489L173.506 160.724L173.506 166Z" fill="#2F2E41"/>
<path d="M166.379 155.506L158.262 137.305C157.585 135.771 157.51 134.038 158.052 132.451C158.595 130.864 159.716 129.54 161.191 128.743L178.795 119.302L186.829 118.619L194.239 117.945L194.293 118.036C194.361 118.151 195.954 120.903 194.877 123.921C194.06 126.21 191.935 127.998 188.561 129.235C180.686 132.122 171.589 134.59 168.043 135.517C167.887 135.557 167.74 135.63 167.614 135.731C167.487 135.831 167.383 135.958 167.309 136.102C167.235 136.244 167.19 136.399 167.179 136.559C167.168 136.719 167.19 136.88 167.244 137.031L174.784 153.972C174.863 154.187 174.891 154.417 174.867 154.644C174.843 154.872 174.767 155.091 174.645 155.284C174.522 155.478 174.357 155.641 174.162 155.76C173.967 155.88 173.747 155.953 173.519 155.974L167.885 156.384C167.837 156.389 167.79 156.391 167.742 156.391C167.454 156.391 167.171 156.307 166.929 156.15C166.687 155.993 166.496 155.769 166.379 155.506Z" fill="#2F2E41"/>
<path d="M174.46 162.054L170.389 162.053L168.452 151.494L174.461 151.494L174.46 162.054Z" fill="#FFB8B8"/>
<path d="M175.498 166L162.371 165.999V165.833C162.371 165.162 162.503 164.498 162.76 163.878C163.017 163.258 163.393 162.695 163.868 162.22C164.342 161.746 164.905 161.37 165.525 161.113C166.145 160.856 166.81 160.724 167.481 160.724H167.481L175.499 160.724L175.498 166Z" fill="#2F2E41"/>
<path d="M168.703 156.502L160.587 138.301C159.909 136.767 159.834 135.034 160.377 133.448C160.92 131.861 162.04 130.537 163.515 129.739L181.12 120.299L189.154 119.615L196.564 118.942L196.617 119.032C196.686 119.148 198.279 121.9 197.202 124.917C196.385 127.206 194.26 128.994 190.886 130.231C183.011 133.119 173.914 135.587 170.368 136.513C170.211 136.554 170.065 136.626 169.938 136.727C169.812 136.828 169.708 136.954 169.634 137.098C169.559 137.24 169.515 137.396 169.504 137.556C169.493 137.716 169.515 137.876 169.569 138.027L177.109 154.968C177.188 155.183 177.216 155.413 177.192 155.641C177.168 155.868 177.091 156.087 176.969 156.281C176.847 156.474 176.682 156.637 176.487 156.757C176.292 156.876 176.072 156.949 175.844 156.971L170.21 157.381C170.162 157.385 170.114 157.388 170.067 157.388C169.778 157.388 169.496 157.304 169.254 157.147C169.012 156.989 168.821 156.766 168.703 156.502Z" fill="#2F2E41"/>
<path d="M164.658 100.901C161.247 96.3644 158.551 91.3325 156.663 85.9801C156.553 85.6599 156.561 85.3113 156.685 84.9964C156.808 84.6814 157.039 84.4205 157.337 84.2601L169.008 78.0065C169.197 77.9045 169.407 77.847 169.621 77.8383C169.836 77.8296 170.049 77.87 170.246 77.9563C170.446 78.0432 170.623 78.1747 170.765 78.3406C170.907 78.5066 171.009 78.7027 171.063 78.914C172.421 84.0717 174.975 88.8373 178.517 92.8251C178.663 92.9874 178.769 93.1809 178.829 93.3907C178.889 93.6006 178.9 93.8213 178.862 94.0361C178.825 94.2474 178.74 94.4476 178.614 94.6213C178.488 94.795 178.324 94.9376 178.135 95.0383L166.463 101.292C166.165 101.451 165.82 101.499 165.489 101.428C165.158 101.356 164.864 101.169 164.658 100.901Z" fill="#CCCCCC"/>
<path d="M165.454 100.303C165.517 100.381 165.605 100.435 165.703 100.455C165.802 100.476 165.904 100.461 165.993 100.414L177.664 94.1603C177.721 94.1307 177.77 94.0885 177.807 94.0368C177.845 93.9851 177.87 93.9254 177.881 93.8624C177.893 93.7959 177.889 93.7274 177.871 93.6624C177.852 93.5974 177.818 93.5377 177.773 93.4878C174.126 89.3825 171.498 84.4765 170.099 79.1668C170.083 79.1012 170.052 79.0402 170.008 78.9887C169.965 78.9371 169.91 78.8963 169.848 78.8696C169.789 78.8434 169.725 78.8312 169.661 78.8338C169.598 78.8365 169.535 78.8539 169.479 78.8848L157.808 85.1384C157.72 85.1862 157.651 85.2633 157.613 85.3565C157.575 85.4497 157.572 85.5531 157.602 85.6489C159.457 90.9055 162.105 95.8473 165.454 100.303Z" fill="white"/>
<path d="M203.431 99.233L194.29 102.706L192.059 96.5075C191.763 95.6844 191.767 94.783 192.071 93.9627C192.375 93.1423 192.959 92.4558 193.72 92.0245C194.49 91.5882 195.39 91.4416 196.259 91.6112C197.128 91.7808 197.907 92.2554 198.456 92.9492L203.431 99.233Z" fill="#276EF1"/>
<path d="M180.182 123.794C179.99 123.658 179.828 123.482 179.709 123.279C179.59 123.076 179.515 122.85 179.49 122.615C178.319 111.687 179.135 103.134 181.983 96.469C182.484 95.3194 183.24 94.2984 184.193 93.4829C185.146 92.6673 186.271 92.0783 187.484 91.7602L194.873 91.3872L194.911 91.4057C196.578 92.2223 197.938 93.5546 198.789 95.2048C199.639 96.8551 199.935 98.7355 199.633 100.567C197.257 106.831 195.267 113.353 196.784 118.615C196.848 118.835 196.866 119.065 196.839 119.292C196.811 119.52 196.738 119.739 196.624 119.938C196.513 120.129 196.364 120.296 196.186 120.428C196.008 120.56 195.805 120.654 195.589 120.704L181.516 124.052C181.288 124.106 181.051 124.111 180.821 124.067C180.591 124.022 180.373 123.929 180.182 123.794Z" fill="#276EF1"/>
<path d="M192.407 88.6275C196.912 88.6275 200.563 84.9758 200.563 80.4712C200.563 75.9666 196.912 72.3149 192.407 72.3149C187.902 72.3149 184.251 75.9666 184.251 80.4712C184.251 84.9758 187.902 88.6275 192.407 88.6275Z" fill="#FFB8B8"/>
<path d="M169.775 86.9312L163.418 89.7371C163.176 89.8435 162.902 89.8497 162.656 89.7542C162.41 89.6588 162.211 89.4696 162.104 89.228L161.947 88.8719C161.841 88.6301 161.834 88.356 161.93 88.1098C162.025 87.8635 162.215 87.6651 162.456 87.5582L168.813 84.7522C169.054 84.6458 169.329 84.6397 169.575 84.7351C169.821 84.8305 170.019 85.0198 170.126 85.2613L170.284 85.6175C170.39 85.8592 170.396 86.1333 170.301 86.3796C170.205 86.6259 170.016 86.8242 169.775 86.9312Z" fill="#CCCCCC"/>
<path d="M172.099 91.2483L165.743 94.0543C165.501 94.1607 165.227 94.1668 164.981 94.0714C164.734 93.9759 164.536 93.7867 164.429 93.5452L164.272 93.189C164.165 92.9473 164.159 92.6732 164.255 92.4269C164.35 92.1806 164.539 91.9822 164.781 91.8753L171.137 89.0694C171.379 88.963 171.653 88.9568 171.9 89.0522C172.146 89.1477 172.344 89.3369 172.451 89.5784L172.608 89.9346C172.715 90.1764 172.721 90.4504 172.625 90.6967C172.53 90.943 172.341 91.1414 172.099 91.2483Z" fill="#CCCCCC"/>
<path d="M177.001 108.11L162.83 96.9305C162.717 96.9702 162.602 97.004 162.486 97.032C161.986 97.149 161.466 97.1594 160.962 97.0627C160.457 96.9659 159.979 96.7641 159.558 96.4703C159.133 96.1763 158.777 95.7951 158.512 95.3522C158.247 94.9093 158.08 94.4149 158.021 93.9022C157.926 93.0824 158.111 92.2546 158.545 91.5531C158.98 90.8515 159.639 90.3174 160.415 90.0373C160.9 89.8635 161.415 89.7941 161.929 89.8335C162.442 89.8729 162.941 90.0203 163.393 90.266C163.846 90.5117 164.241 90.8502 164.553 91.2593C164.866 91.6684 165.088 92.1389 165.206 92.64C165.242 92.7988 165.268 92.9599 165.282 93.1222L179.389 101.261L182.9 99.2395L186.789 104.331L181.338 108.216C180.7 108.667 179.933 108.9 179.152 108.881C178.371 108.862 177.617 108.592 177.001 108.11Z" fill="#FFB8B8"/>
<path d="M188.518 105.917L180.432 100.418L184.232 95.0362C184.737 94.3215 185.478 93.8083 186.324 93.5871C187.171 93.3659 188.068 93.451 188.858 93.8274C189.657 94.2082 190.293 94.8621 190.652 95.671C191.011 96.4799 191.069 97.3905 190.815 98.2383L188.518 105.917Z" fill="#276EF1"/>
<path d="M189.417 79.2564C187.32 80.6912 184.568 82.166 182.427 80.6381C181.021 79.6349 180.578 77.7771 181.148 76.1468C182.173 73.215 184.99 71.9243 187.684 70.9349C191.185 69.6487 194.998 68.6255 198.613 69.5466C202.228 70.4677 205.422 73.9676 204.77 77.6404C204.245 80.594 201.459 83.0517 201.854 86.0253C202.252 89.0181 205.618 90.5934 208.589 91.1283C211.561 91.6632 214.886 91.835 217.021 93.9693C219.745 96.692 219.065 101.558 216.502 104.433C213.939 107.308 210.07 108.611 206.322 109.497C201.356 110.67 195.985 111.287 191.268 109.339C186.552 107.391 182.881 102.148 184.248 97.2316C184.825 95.1548 186.184 93.3996 187.498 91.6909C188.812 89.9822 190.143 88.1954 190.644 86.0991C191.062 84.3521 190.752 82.3237 189.594 81.0133C189.383 80.7839 189.251 80.4937 189.215 80.1842C189.18 79.8748 189.243 79.562 189.397 79.291L189.417 79.2564Z" fill="#2F2E41"/>
<path d="M36.2209 118.885C34.1192 119.624 31.8627 119.809 29.6687 119.422C27.4747 119.036 25.4172 118.091 23.6944 116.678C19.307 112.996 17.9313 106.929 16.8121 101.311C15.7085 95.7726 14.605 90.2339 13.5015 84.6953L20.4326 89.4678C25.417 92.8999 30.5137 96.4419 33.9649 101.413C37.4161 106.384 38.9226 113.171 36.1496 118.55" fill="#E9E9E9"/>
<path d="M35.6284 139.002C36.3299 133.892 37.0513 128.716 36.5592 123.552C36.1222 118.965 34.7228 114.485 31.8739 110.812C30.3617 108.866 28.5216 107.198 26.4365 105.884C25.8927 105.541 25.3922 106.403 25.9336 106.745C29.5416 109.025 32.3323 112.392 33.9032 116.361C35.6383 120.774 35.9169 125.585 35.6179 130.273C35.4371 133.108 35.0539 135.924 34.6677 138.737C34.6373 138.864 34.6563 138.998 34.7209 139.112C34.7854 139.226 34.8908 139.311 35.0156 139.35C35.143 139.384 35.2788 139.367 35.3935 139.302C35.5082 139.237 35.5926 139.129 35.6284 139.002Z" fill="#F2F2F2"/>
<path d="M28.8716 129.96C27.9702 131.33 26.7312 132.444 25.2739 133.197C23.8166 133.949 22.1902 134.313 20.5513 134.254C16.3395 134.054 12.8282 131.114 9.66731 128.324L0.318115 120.069L6.50573 119.773C10.9555 119.56 15.5201 119.361 19.7583 120.734C23.9966 122.106 27.9053 125.408 28.6803 129.795" fill="#E9E9E9"/>
<path d="M37.6109 141.939C34.2344 135.965 30.3179 129.325 23.3198 127.203C21.374 126.614 19.3337 126.404 17.3088 126.582C16.6706 126.637 16.83 127.621 17.467 127.566C20.8612 127.284 24.2489 128.18 27.0597 130.104C29.7644 131.945 31.8704 134.504 33.6529 137.219C34.7447 138.881 35.7227 140.614 36.7008 142.345C37.0134 142.898 37.9271 142.499 37.6109 141.939Z" fill="#F2F2F2"/>
<path d="M43.0212 148.228C42.9074 146.91 42.4341 145.648 41.6528 144.58C40.8716 143.512 39.8123 142.679 38.5903 142.172V138.718H32.7972V142.281C31.6354 142.813 30.6355 143.644 29.8995 144.689C29.1635 145.733 28.7177 146.955 28.6076 148.228L27.2454 164.063H44.3834L43.0212 148.228Z" fill="#F2F2F2"/>
</g>
<defs>
<clipPath id="clip0_41_1999">
<rect width="229.801" height="166" fill="white"/>
</clipPath>
</defs>
</svg>
