<svg width="53" height="53" viewBox="0 0 53 53" fill="none" xmlns="http://www.w3.org/2000/svg">
<path d="M39.75 15.8117C39.6175 15.7896 39.4629 15.7896 39.3304 15.8117C36.2829 15.7013 33.8538 13.2059 33.8538 10.1142C33.8538 6.95627 36.3933 4.41669 39.5513 4.41669C42.7092 4.41669 45.2488 6.97836 45.2488 10.1142C45.2267 13.2059 42.7975 15.7013 39.75 15.8117Z" stroke="#292D32" stroke-width="3" stroke-linecap="round" stroke-linejoin="round"/>
<path d="M37.4754 31.8883C40.5009 32.3963 43.8354 31.8663 46.1763 30.2983C49.29 28.2225 49.29 24.8217 46.1763 22.7458C43.8134 21.1779 40.4346 20.6479 37.4092 21.1779" stroke="#292D32" stroke-width="3" stroke-linecap="round" stroke-linejoin="round"/>
<path d="M13.1838 15.8117C13.3163 15.7896 13.4709 15.7896 13.6034 15.8117C16.6509 15.7013 19.0801 13.2059 19.0801 10.1142C19.0801 6.95627 16.5405 4.41669 13.3826 4.41669C10.2246 4.41669 7.68506 6.97836 7.68506 10.1142C7.70714 13.2059 10.1363 15.7013 13.1838 15.8117Z" stroke="#292D32" stroke-width="3" stroke-linecap="round" stroke-linejoin="round"/>
<path d="M15.4584 31.8883C12.433 32.3963 9.09839 31.8663 6.75755 30.2983C3.6438 28.2225 3.6438 24.8217 6.75755 22.7458C9.12047 21.1779 12.4992 20.6479 15.5246 21.1779" stroke="#292D32" stroke-width="3" stroke-linecap="round" stroke-linejoin="round"/>
<path d="M26.5 32.3079C26.3675 32.2858 26.2129 32.2858 26.0804 32.3079C23.0329 32.1975 20.6038 29.7021 20.6038 26.6104C20.6038 23.4525 23.1433 20.9129 26.3013 20.9129C29.4592 20.9129 31.9988 23.4746 31.9988 26.6104C31.9767 29.7021 29.5475 32.2196 26.5 32.3079Z" stroke="#292D32" stroke-width="3" stroke-linecap="round" stroke-linejoin="round"/>
<path d="M20.0737 39.2642C16.96 41.34 16.96 44.7408 20.0737 46.8167C23.607 49.1796 29.3929 49.1796 32.9262 46.8167C36.04 44.7408 36.04 41.34 32.9262 39.2642C29.415 36.9233 23.607 36.9233 20.0737 39.2642Z" stroke="#292D32" stroke-width="3" stroke-linecap="round" stroke-linejoin="round"/>
</svg>
