<svg width="230" height="191" viewBox="0 0 230 191" fill="none" xmlns="http://www.w3.org/2000/svg">
<g clip-path="url(#clip0_41_1446)">
<path d="M61.6836 179.479L65.5562 180.829L72.6078 166.535L66.8922 164.542L61.6836 179.479Z" fill="#A0616A"/>
<path d="M66.7233 181.627L67.6389 179.002L66.5991 178.709L62.3693 177.509L61.3896 177.234L57.5899 185.771L57.3862 186.228L60.1359 187.187L60.3876 186.75L61.529 184.762L61.8181 187.249L61.8807 187.796L69.1707 190.338C69.6055 190.487 70.0813 190.458 70.4948 190.258C70.9084 190.057 71.2263 189.702 71.3794 189.269C72.1883 187.939 67.2093 182.719 66.7233 181.627Z" fill="#2F2E41"/>
<path d="M34.2959 182.505H38.3971L40.3482 166.686L34.2949 166.686L34.2959 182.505Z" fill="#A0616A"/>
<path d="M39.7619 182.874V180.094L38.6837 180.16L34.2946 180.42L33.2789 180.482L32.5023 189.794L32.4607 190.293H35.3728L35.4664 189.798L35.8894 187.544L36.9814 189.798L37.2206 190.293H44.9413C45.4007 190.291 45.8405 190.107 46.165 189.781C46.4896 189.456 46.6727 189.016 46.6747 188.557C47.0006 187.035 40.58 183.745 39.7619 182.874Z" fill="#2F2E41"/>
<path d="M63.5651 83.2374L70.0063 91.7747C70.0063 91.7747 66.449 91.5279 70.0063 93.0741C73.5635 94.6204 73.6643 94.074 73.6139 95.948C73.5635 97.8219 69.9373 97.5418 71.7504 99.4605C73.5635 101.379 85.7085 126.888 85.7085 126.888C85.7085 126.888 75.7566 163.819 74.4822 165.325C73.2078 166.832 71.7849 165.409 73.2078 166.832C74.6307 168.255 76.4093 166.476 74.6307 168.255C72.852 170.034 70.4124 173.172 70.4124 173.172L63.2476 172.168C63.2476 172.168 55.4217 164.698 67.872 152.247C67.872 152.247 71.0062 139.792 69.617 139.794C68.2277 139.797 68.2277 141.805 68.2277 137.778V133.75L51.74 102.862C51.74 102.862 41.218 94.654 41.3833 90.9021C41.5485 87.1503 63.5651 83.2374 63.5651 83.2374Z" fill="#2EC4B6"/>
<path d="M51.8644 91.7747C51.8644 91.7747 59.3346 129.481 58.2674 130.548C57.2003 131.616 57.2003 134.293 57.2003 134.293L40.1256 172.168L33.3669 172.524C33.2073 161.687 33.1633 153.468 39.0585 145.844L41.9043 89.9961L51.8644 91.7747Z" fill="#2EC4B6"/>
<path d="M61.5626 47.0154L53.4213 40.5881L49.1476 40.3396L42.8063 44.402L41.2535 52.3237L37.5812 61.2441L42.9675 85.3176C42.9675 85.3176 43.4727 87.045 42.1488 87.2525C40.825 87.46 40.9838 90.0064 40.9838 90.0064C40.9838 90.0064 41.2533 92.2132 39.9679 92.4076C38.6824 92.6019 35.2546 92.6019 38.2541 96.4583C41.2535 100.315 64.9772 85.7291 64.9772 85.7291L68.4229 67.6493C68.4229 67.6493 75.1053 58.674 67.9089 53.5337L61.5626 47.0154Z" fill="#E6E6E6"/>
<path d="M26.0218 101.673C25.6631 101.226 25.4069 100.705 25.2712 100.147C25.1356 99.5899 25.1238 99.0096 25.2366 98.4472C25.3495 97.8847 25.5844 97.3539 25.9246 96.892C26.2649 96.4302 26.7022 96.0485 27.2059 95.774L37.4465 61.407L43.8498 64.6308L32.6976 97.5712C33.1027 98.448 33.1722 99.4428 32.8928 100.367C32.6134 101.292 32.0046 102.082 31.1817 102.587C30.3588 103.093 29.379 103.279 28.4281 103.111C27.4771 102.942 26.6209 102.431 26.0218 101.673Z" fill="#A0616A"/>
<path d="M44.2769 44.084C44.2769 44.084 42.4464 43.1112 41.1944 47.3208C40.192 50.691 32.0587 70.7649 31.9549 75.6454C31.2856 75.7872 30.6825 76.1477 30.2406 76.6701C29.7987 77.1925 29.5431 77.847 29.5142 78.5306L39.5704 79.8782C41.3276 78.3961 41.7886 76.3943 41.1087 75.8002L43.2921 69.8368L52.4012 50.8635L45.6125 44.7637L44.2769 44.084Z" fill="#E6E6E6"/>
<path d="M98.0102 90.3767C98.1401 89.818 98.1459 89.2375 98.0272 88.6763C97.9085 88.1151 97.6681 87.5867 97.3231 87.1284C96.9781 86.6701 96.5368 86.293 96.0303 86.0237C95.5238 85.7544 94.9644 85.5995 94.3915 85.5697L70.9 58.7405L65.9167 64.6866L90.2171 89.5651C90.2309 90.5308 90.5985 91.4578 91.2502 92.1706C91.902 92.8834 92.7925 93.3323 93.7531 93.4324C94.7137 93.5324 95.6777 93.2766 96.4623 92.7135C97.2469 92.1503 97.7977 91.3188 98.0102 90.3767Z" fill="#A0616A"/>
<path d="M56.6463 46.3451C56.6463 46.3451 57.8761 44.6764 60.8254 47.9306C63.1866 50.5359 79.2009 65.1185 81.405 69.4742C82.0699 69.3127 82.7696 69.3769 83.3939 69.6568C84.0183 69.9367 84.5317 70.4164 84.8535 71.0203L76.3689 76.5841C74.1436 76.0076 72.8623 74.402 73.2184 73.5723L68.6709 69.1396L52.2527 55.9712L55.736 47.5356L56.6463 46.3451Z" fill="#E6E6E6"/>
<path d="M59.9348 31.2828C61.7836 26.5286 59.4284 21.1758 54.6742 19.3269C49.92 17.4781 44.5671 19.8333 42.7183 24.5875C40.8694 29.3418 43.2247 34.6946 47.9789 36.5435C52.7331 38.3923 58.0859 36.0371 59.9348 31.2828Z" fill="#A0616A"/>
<path d="M62.3617 19.4688C61.8058 18.8694 61.0694 18.4678 60.2645 18.3251C59.4596 18.1824 58.63 18.3064 57.902 18.6782C58.0878 17.6402 58.2737 16.6022 58.4596 15.5641C56.915 15.3277 55.3705 15.0913 53.826 14.8549C51.4958 14.4982 49.0947 14.1439 46.8032 14.6968C45.1627 15.1166 43.6679 15.9761 42.4799 17.1828C41.2919 18.3895 40.4557 19.8975 40.0616 21.5443C39.0636 20.8677 37.8959 20.4844 36.691 20.438C35.4862 20.3916 34.2924 20.6839 33.2453 21.2817C32.1982 21.8796 31.3397 22.759 30.7673 23.8202C30.1948 24.8814 29.9314 26.0818 30.0068 27.2852C30.1178 29.0564 30.9461 30.6908 31.4586 32.3899C33.4062 38.8466 30.1806 46.4678 24.1897 49.5647C26.1192 51.0284 28.1119 52.5239 30.4485 53.1609C32.7851 53.7979 35.5783 53.3792 37.1171 51.509C37.9044 50.5522 38.2843 49.3338 38.6467 48.149C40.1118 43.3583 41.5769 38.5676 43.0421 33.777L45.4107 38.0535C46.1671 39.1111 45.8963 40.5912 45.3514 41.7717C44.8065 42.9523 44.0149 44.0453 43.771 45.3225C43.5271 46.5997 44.0939 48.1823 45.3632 48.4645C47.0781 44.4303 48.8297 40.1315 48.1645 35.7988C47.9055 34.1125 47.2853 32.3831 47.7726 30.7481C48.1491 29.4847 49.1458 28.4905 50.2531 27.7751C51.4124 27.0275 52.7145 26.529 54.0767 26.3112C57.0871 25.8324 60.834 26.4755 62.601 23.9917C63.0591 23.3146 63.2835 22.5064 63.2403 21.6901C63.1971 20.8737 62.8886 20.0938 62.3617 19.4688Z" fill="#2F2E41"/>
<path d="M56.4897 76.6746C60.8097 76.6746 64.3117 73.1726 64.3117 68.8526C64.3117 64.5327 60.8097 61.0306 56.4897 61.0306C52.1697 61.0306 48.6677 64.5327 48.6677 68.8526C48.6677 73.1726 52.1697 76.6746 56.4897 76.6746Z" fill="#A7A7A7"/>
<path d="M58.3156 64.9166C58.3572 65.0865 58.4195 65.2508 58.5009 65.4056C58.5696 65.5804 58.6853 65.7328 58.8352 65.8459C58.9851 65.959 59.1634 66.0284 59.3504 66.0464C59.3817 66.0451 59.4129 66.0406 59.4434 66.033C59.7778 65.9506 59.9818 65.5455 59.9852 65.0396C59.9852 64.8646 59.9639 64.6903 59.9217 64.5205C59.8809 64.3521 59.8195 64.1894 59.7388 64.0361C59.501 63.5875 59.1303 63.3211 58.795 63.4038C58.3508 63.5133 58.1367 64.1909 58.3156 64.9166Z" fill="white"/>
<path d="M58.9186 65.4032C58.9819 65.662 59.1349 65.8899 59.3504 66.0464C59.3818 66.0451 59.413 66.0406 59.4435 66.033C59.7779 65.9505 59.9819 65.5455 59.9852 65.0396C59.9853 64.8646 59.964 64.6903 59.9218 64.5205C59.881 64.3521 59.8195 64.1894 59.7388 64.0361C59.4491 64.1093 59.2002 64.2942 59.0465 64.5504C58.8928 64.8066 58.8468 65.1132 58.9186 65.4032Z" fill="#3F3D56"/>
<path d="M54.9887 65.737C55.1606 66.4338 55.6325 66.922 56.0629 66.8635C56.0809 66.8612 56.0988 66.8578 56.1165 66.8535C56.5597 66.7442 56.7738 66.0666 56.5948 65.3409C56.5541 65.1729 56.4927 65.0105 56.4121 64.8576C56.1741 64.408 55.8034 64.1415 55.468 64.2242C55.0239 64.3338 54.8097 65.0113 54.9887 65.737Z" fill="white"/>
<path d="M55.6246 66.2156C55.6885 66.4771 55.844 66.707 56.0629 66.8636C56.0809 66.8613 56.0988 66.8579 56.1165 66.8535C56.5597 66.7442 56.7738 66.0667 56.5948 65.341C56.5541 65.173 56.4927 65.0106 56.4121 64.8577C56.1304 64.9379 55.8909 65.1243 55.744 65.3776C55.5971 65.6309 55.5543 65.9314 55.6246 66.2156Z" fill="#3F3D56"/>
<path d="M61.5783 68.0298C62.0542 69.9593 61.3004 71.8045 59.8946 72.1512C58.4888 72.498 56.9634 71.2148 56.4875 69.2853C58.2224 69.7209 59.9205 69.3287 61.5783 68.0298Z" fill="white"/>
<path opacity="0.2" d="M48.8958 70.7407C48.5113 69.1813 48.6159 67.5413 49.1954 66.0435C49.775 64.5456 50.8015 63.2623 52.1355 62.3679C50.8907 63.7978 50.2075 65.6311 50.213 67.527C50.2185 69.4228 50.9123 71.2521 52.1653 72.6748C53.4184 74.0974 55.1455 75.0167 57.0254 75.2615C58.9054 75.5063 60.8103 75.0601 62.3859 74.0058C61.4456 75.0856 60.2268 75.8864 58.8625 76.321C57.4982 76.7557 56.0408 76.8074 54.6492 76.4705C53.2575 76.1337 51.985 75.4212 50.9705 74.4109C49.956 73.4005 49.2383 72.1309 48.8958 70.7407Z" fill="black"/>
<path d="M226.594 185.227C226.439 185.234 226.285 185.193 226.155 185.11C226.024 185.027 225.921 184.906 225.861 184.763C225.802 184.62 225.787 184.462 225.82 184.311C225.853 184.16 225.932 184.022 226.046 183.917L226.098 183.711C226.091 183.694 226.084 183.678 226.077 183.661C225.921 183.293 225.66 182.979 225.326 182.759C224.992 182.538 224.6 182.421 224.2 182.423C223.8 182.424 223.41 182.544 223.077 182.767C222.745 182.99 222.486 183.306 222.333 183.675C221.72 185.15 220.941 186.628 220.749 188.187C220.664 188.876 220.7 189.575 220.854 190.252C219.416 187.115 218.669 183.705 218.664 180.253C218.664 179.387 218.712 178.522 218.808 177.661C218.888 176.955 218.998 176.255 219.14 175.559C219.91 171.785 221.566 168.247 223.969 165.237C225.132 164.602 226.073 163.626 226.665 162.441C226.879 162.014 227.03 161.559 227.114 161.09C226.983 161.107 226.62 159.108 226.719 158.986C226.536 158.708 226.208 158.57 226.009 158.299C225.015 156.953 223.647 157.188 222.932 159.018C221.406 159.788 221.391 161.066 222.328 162.294C222.924 163.076 223.005 164.134 223.528 164.97C223.474 165.039 223.418 165.106 223.365 165.175C222.382 166.439 221.525 167.797 220.806 169.228C220.981 167.624 220.773 166.002 220.198 164.495C219.616 163.09 218.524 161.907 217.563 160.693C217.309 160.367 216.964 160.123 216.571 159.993C216.179 159.863 215.756 159.852 215.358 159.962C214.959 160.072 214.602 160.298 214.331 160.611C214.061 160.924 213.889 161.31 213.838 161.72C213.836 161.738 213.834 161.756 213.832 161.774C213.975 161.854 214.115 161.94 214.252 162.03C214.423 162.145 214.556 162.309 214.633 162.501C214.71 162.692 214.728 162.903 214.683 163.104C214.638 163.306 214.534 163.49 214.383 163.631C214.232 163.772 214.042 163.864 213.838 163.896L213.817 163.899C213.868 164.414 213.958 164.924 214.086 165.424C212.853 170.193 215.515 171.929 219.316 172.007C219.4 172.05 219.482 172.093 219.566 172.134C218.844 174.179 218.391 176.31 218.219 178.472C218.121 179.747 218.127 181.029 218.236 182.303L218.23 182.258C217.954 180.841 217.198 179.562 216.089 178.638C214.442 177.284 212.115 176.786 210.337 175.698C210.149 175.577 209.929 175.512 209.705 175.512C209.48 175.511 209.26 175.575 209.071 175.695C208.881 175.816 208.73 175.988 208.635 176.191C208.54 176.394 208.506 176.621 208.535 176.843L208.542 176.891C208.807 176.999 209.065 177.123 209.315 177.263C209.457 177.343 209.597 177.429 209.734 177.519C209.906 177.634 210.039 177.798 210.116 177.99C210.193 178.181 210.21 178.392 210.165 178.594C210.121 178.795 210.016 178.979 209.865 179.12C209.715 179.261 209.525 179.354 209.321 179.385L209.3 179.388C209.285 179.391 209.272 179.393 209.257 179.395C209.709 180.476 210.345 181.47 211.135 182.336C211.906 186.498 215.217 186.893 218.759 185.681H218.761C219.15 187.37 219.713 189.013 220.441 190.586H226.443C226.465 190.519 226.484 190.45 226.503 190.384C225.948 190.418 225.39 190.385 224.843 190.285C225.288 189.738 225.733 189.187 226.179 188.641C226.189 188.631 226.198 188.62 226.207 188.609C226.432 188.329 226.66 188.052 226.886 187.772L226.886 187.772C226.898 186.914 226.8 186.059 226.594 185.227Z" fill="#F2F2F2"/>
<path d="M1.7543e-06 190.604C-0.000153481 190.656 0.00999518 190.707 0.0298603 190.755C0.0497254 190.804 0.078918 190.847 0.115756 190.884C0.152595 190.921 0.196351 190.95 0.244511 190.97C0.292672 190.99 0.34429 191 0.396386 191H229.315C229.42 191 229.521 190.958 229.595 190.884C229.669 190.81 229.711 190.709 229.711 190.604C229.711 190.499 229.669 190.398 229.595 190.323C229.521 190.249 229.42 190.207 229.315 190.207H0.396366C0.344272 190.207 0.292659 190.217 0.244501 190.237C0.196344 190.257 0.152587 190.286 0.115751 190.323C0.0789154 190.36 0.0497248 190.404 0.0298603 190.452C0.0099958 190.5 -0.0001517 190.552 1.7543e-06 190.604Z" fill="#CCCCCC"/>
<path d="M162.194 185.149L157.363 185.149L155.064 166.511L162.195 166.512L162.194 185.149Z" fill="#FFB6B6"/>
<path d="M162.364 190.19L147.506 190.189V190.001C147.506 188.468 148.115 186.997 149.2 185.912C150.284 184.828 151.755 184.218 153.289 184.218H153.29L156.004 182.159L161.068 184.218L162.365 184.218L162.364 190.19Z" fill="#2F2E41"/>
<path d="M183.272 185.149L178.44 185.149L176.142 166.511L183.273 166.512L183.272 185.149Z" fill="#FFB6B6"/>
<path d="M183.442 190.19L168.583 190.189V190.001C168.583 188.468 169.193 186.997 170.277 185.912C171.362 184.828 172.833 184.218 174.367 184.218H174.367L177.081 182.159L182.145 184.218L183.442 184.218L183.442 190.19Z" fill="#2F2E41"/>
<path d="M150.163 83.5991C150.163 83.5991 145.514 97.8775 146.373 99.7568C147.231 101.636 148.695 100.172 147.231 101.636C145.767 103.1 144.489 101.544 145.86 104.03C147.231 106.516 149.308 126.983 150.221 127.974C151.135 128.965 152.391 128.992 151.275 129.954C150.159 130.917 148.695 128.965 150.159 130.917C151.623 132.869 155.508 177.901 155.508 177.901H163.097C163.097 177.901 164.987 175.722 163.917 174.304C162.847 172.886 164.011 172.34 163.917 171.393C163.823 170.446 164.179 168.405 164.245 167.474C164.311 166.542 165.594 144.353 162.512 131.535L168.131 107.128L174.938 136.627C174.938 136.627 171.807 161.37 174.938 169.324C174.938 169.324 172.413 171.426 173.533 172.644C174.652 173.862 175.628 172.886 174.652 173.862C173.676 174.838 176.116 178.255 176.116 178.255L184.413 177.767L189.108 131.535C189.108 131.535 189.9 126.713 189.108 125.887C188.317 125.061 188.317 127.989 188.317 125.061V121.157C188.317 121.157 187.858 97.144 187.797 95.7299C187.736 94.3159 181.88 84.0675 181.88 84.0675L150.163 83.5991Z" fill="#2F2E41"/>
<path d="M150.233 34.2834V62.4381C151.142 65.1643 151.61 68.0178 151.622 70.8915C151.592 75.6778 150.539 81.1935 150.542 83.605C150.528 83.9248 150.563 84.2449 150.646 84.5542C155.305 98.0604 179.963 85.7866 182.204 84.6375C182.311 84.5842 182.368 84.5542 182.368 84.5542L181.881 69.426L181.965 65.076L182.541 35.2359L182.025 34.8229L177.501 31.2157L177.058 30.8627L175.7 32.8445L163.586 32.0118L158.963 30.7328L157.52 31.319L151.019 33.9636L150.233 34.2834Z" fill="#276EF1"/>
<path d="M143.06 90.931L144.652 82.1328L149.805 82.3413L147.791 91.5834C148.063 92.0693 148.194 92.6214 148.169 93.1777C148.144 93.7339 147.965 94.2723 147.651 94.7322C147.337 95.1921 146.901 95.5554 146.392 95.7811C145.883 96.0069 145.321 96.0862 144.77 96.0101C144.218 95.934 143.699 95.7056 143.27 95.3505C142.841 94.9954 142.52 94.5277 142.342 94C142.164 93.4723 142.137 92.9055 142.264 92.3633C142.391 91.8212 142.667 91.3251 143.06 90.931Z" fill="#FFB6B6"/>
<path d="M151.024 34.2234C153.672 34.9092 155.184 38.3418 156.114 40.9142C157.311 44.2191 155.369 64.5947 153.007 67.5667C151.175 69.8718 151.61 69.4287 152.214 71.3378C152.819 73.2469 154.217 71.3849 152.959 74.2247C151.701 77.0645 150.63 76.5521 151.468 77.7629C152.306 78.9736 153.284 78.8342 152.212 80.6497C151.141 82.4653 151.234 83.1172 151.001 83.8155C150.768 84.5139 150.487 89.5422 150.487 89.5422C150.487 89.5422 145.04 88.6562 142.2 89.7264C142.2 89.7264 144.156 84.7916 143.365 83.9068C142.574 83.0219 141.55 82.8354 142.388 81.7182C143.226 80.601 144.902 80.6945 143.133 79.9491C141.364 79.2037 142.857 68.6816 142.857 68.6816C140.871 61.7559 142.255 51.3966 144.265 40.3991C144.562 38.7727 145.384 37.2885 146.605 36.1732C147.825 35.058 149.377 34.3732 151.024 34.2234Z" fill="#276EF1"/>
<path d="M185.39 90.3466L185.775 81.4137L190.908 80.9218L190.165 90.3516C190.501 90.7961 190.705 91.3254 190.756 91.8799C190.807 92.4343 190.702 92.992 190.454 93.4903C190.205 93.9885 189.823 94.4075 189.349 94.7001C188.875 94.9928 188.329 95.1476 187.772 95.147C187.216 95.1464 186.67 94.9905 186.197 94.6968C185.724 94.4032 185.342 93.9834 185.095 93.4846C184.847 92.9859 184.743 92.4279 184.796 91.8736C184.848 91.3192 185.053 90.7904 185.39 90.3466Z" fill="#FFB6B6"/>
<path d="M180.023 34.3666L180.167 34.3835C181.505 34.5414 182.785 35.023 183.895 35.7867C185.005 36.5505 185.912 37.5732 186.538 38.7665C188.172 41.8786 193.343 62.9569 192.077 65.8495C190.897 68.5471 190.945 67.8838 191.803 69.6933C192.661 71.5027 193.793 69.4684 192.932 72.4526C192.071 75.4367 190.941 75.0742 191.935 76.1602C192.929 77.2462 193.879 76.9755 193.064 78.9195C192.248 80.8636 192.429 81.4968 192.293 82.2203C192.157 82.9438 192.56 87.9638 192.56 87.9638C192.56 87.9638 187.043 87.8245 184.374 89.2698C184.374 89.2698 185.644 84.1153 184.74 83.3459C183.836 82.5765 182.796 82.5306 183.475 81.3101C184.154 80.0895 185.827 79.9549 183.974 79.4562C182.12 78.9576 182.172 68.3303 182.172 68.3303L180.023 34.3666Z" fill="#276EF1"/>
<path d="M166.797 22.982C167.013 23.032 167.23 23.0753 167.446 23.1086C168.107 23.2172 168.779 23.2519 169.448 23.2119C171.191 23.1183 172.873 22.5439 174.309 21.5523C175.746 20.5607 176.879 19.1907 177.584 17.5942C178.289 15.9977 178.538 14.2372 178.303 12.5078C178.069 10.7784 177.36 9.14778 176.255 7.79676C175.15 6.44573 173.693 5.42711 172.045 4.85384C170.396 4.28058 168.621 4.17508 166.917 4.54905C165.212 4.92302 163.644 5.76185 162.387 6.9725C161.13 8.18315 160.233 9.71831 159.795 11.4077C159.775 11.4843 159.755 11.5576 159.739 11.6342C159.17 14.0749 159.595 16.6414 160.918 18.7694C162.242 20.8974 164.356 22.4127 166.797 22.982Z" fill="#FFB6B6"/>
<path d="M175.517 21.8671C176.831 20.8386 176.959 18.8783 178.08 17.6425C179.955 15.5764 180.836 13.3535 179.854 10.9053C178.985 8.73995 179.17 6.07821 177.299 4.6844C178.218 4.35175 178.434 3.66093 177.623 3.64817C177.076 3.63957 175.038 4.68459 176.019 3.38277C177 2.08095 175.143 2.59481 175.266 2.06193C175.389 1.52905 176.176 1.23391 176.523 1.65632C175.415 0.357123 172.993 0.634109 172.206 2.15013C171.101 0.493849 169.928 -0.645829 168.237 0.40525C166.576 1.43756 166.598 2.71364 164.812 2.40696C163.972 2.2628 163.893 3.84917 163.319 4.47908C162.746 5.10899 161.907 5.59651 161.07 5.4383C160.233 5.2801 159.593 4.23685 160.062 3.52566L158.089 8.02691L157.293 7.05153C156.03 7.87497 156.445 10.0237 157.717 10.8342C158.989 11.6447 161.416 9.77135 162.106 11.1123C163.194 13.226 165.747 12.1586 167.499 10.6649C169.625 8.85327 172.191 14.3614 171.167 16.9596C172.229 15.9163 174.195 16.7821 174.745 18.1656C175.295 19.5492 174.892 21.108 174.484 22.54L175.517 21.8671Z" fill="#2F2E41"/>
<path d="M157.52 31.319L157.85 31.7386L158.736 32.8644L162.015 42.5502L177.501 31.2157L177.058 30.8627L174.7 25.8499L162.586 25.0172L158.962 30.7328L157.52 31.319Z" fill="#3F3D56"/>
<path d="M174.006 56.0236C173.226 64.4048 167.643 70.7385 161.537 70.1701C155.431 69.6018 151.113 62.3467 151.893 53.9655C158.228 58.1209 165.567 58.9142 174.006 56.0236Z" fill="white"/>
<path d="M159.58 46.0557C159.549 46.554 159.457 47.0466 159.306 47.5226C158.902 48.7694 158.119 49.6477 157.242 49.7498C157.154 49.7617 157.064 49.7648 156.974 49.7589C155.994 49.6955 155.217 48.6604 154.953 47.2411C154.865 46.7497 154.837 46.2493 154.87 45.7511C154.9 45.2577 154.991 44.7699 155.14 44.2987C155.582 42.9191 156.489 41.9841 157.473 42.0477C158.776 42.132 159.718 43.9274 159.58 46.0557Z" fill="white"/>
<path d="M158.132 47.7259C158.084 48.4845 157.769 49.2017 157.242 49.7497C157.154 49.7617 157.064 49.7647 156.974 49.7589C155.994 49.6955 155.217 48.6604 154.953 47.2411C154.865 46.7497 154.837 46.2493 154.87 45.7511C154.9 45.2577 154.991 44.7699 155.14 44.2987C155.991 44.3585 156.783 44.7526 157.343 45.3948C157.904 46.0371 158.187 46.8752 158.132 47.7259Z" fill="#3F3D56"/>
<path d="M169.338 46.6866C169.206 48.73 168.126 50.3388 166.888 50.391C166.836 50.3936 166.784 50.3932 166.732 50.3898C165.432 50.3057 164.49 48.5103 164.627 46.382C164.657 45.8895 164.748 45.4027 164.897 44.9325C165.34 43.55 166.247 42.615 167.23 42.6786C168.533 42.7628 169.475 44.5582 169.338 46.6866Z" fill="white"/>
<path d="M167.793 48.3505C167.745 49.117 167.424 49.8409 166.888 50.391C166.836 50.3936 166.784 50.3932 166.732 50.3897C165.432 50.3057 164.49 48.5103 164.627 46.382C164.657 45.8895 164.748 45.4027 164.897 44.9325C165.729 45.0161 166.495 45.4191 167.035 46.0567C167.576 46.6943 167.847 47.5167 167.793 48.3505Z" fill="#3F3D56"/>
<path d="M87.263 27.2892C89.8059 27.2892 91.8675 25.2277 91.8675 22.6847C91.8675 20.1417 89.8059 18.0802 87.263 18.0802C84.72 18.0802 82.6584 20.1417 82.6584 22.6847C82.6584 25.2277 84.72 27.2892 87.263 27.2892Z" fill="#F2F2F2"/>
<path d="M87.8463 20.7651C87.8416 20.868 87.8494 20.9711 87.8697 21.0721C87.8794 21.1822 87.9195 21.2875 87.9854 21.3763C88.0512 21.465 88.1404 21.5338 88.243 21.5751C88.2609 21.5795 88.2793 21.5822 88.2978 21.583C88.5003 21.5919 88.6828 21.3971 88.7687 21.1119C88.7978 21.0131 88.8147 20.9111 88.8191 20.8082C88.824 20.7064 88.8164 20.6043 88.7962 20.5043C88.7365 20.2115 88.5714 19.9994 88.3683 19.9904C88.0992 19.9785 87.8658 20.3256 87.8463 20.7651Z" fill="white"/>
<path d="M88.1059 21.1401C88.0987 21.2967 88.1473 21.4509 88.2431 21.5751C88.2611 21.5795 88.2795 21.5821 88.298 21.5829C88.5008 21.5919 88.6835 21.3971 88.7696 21.1119C88.7987 21.0131 88.8156 20.9111 88.82 20.8082C88.8249 20.7063 88.8172 20.6043 88.7971 20.5043C88.6211 20.4975 88.4496 20.5606 88.3201 20.6797C88.1906 20.7989 88.1136 20.9644 88.1059 21.1401Z" fill="#F2F2F2"/>
<path d="M85.8311 20.6759C85.8124 21.0979 85.9979 21.452 86.2506 21.4905C86.2612 21.4922 86.2719 21.4933 86.2826 21.4937C86.5511 21.5056 86.7845 21.1585 86.804 20.719C86.8089 20.6173 86.8012 20.5155 86.7811 20.4157C86.7214 20.1222 86.5563 19.9102 86.3531 19.9012C86.0841 19.8892 85.8506 20.2363 85.8311 20.6759Z" fill="white"/>
<path d="M86.1108 21.0517C86.1035 21.21 86.1532 21.3657 86.2509 21.4905C86.2615 21.4922 86.2722 21.4933 86.2829 21.4937C86.5517 21.5056 86.7854 21.1585 86.8049 20.719C86.8099 20.6173 86.8021 20.5154 86.782 20.4157C86.6094 20.4142 86.443 20.4797 86.3178 20.5983C86.1926 20.717 86.1184 20.8795 86.1108 21.0517Z" fill="#F2F2F2"/>
<path d="M89.1719 23.0653C89.1201 24.234 88.3879 25.1509 87.5364 25.1131C86.6849 25.0754 86.0366 24.0974 86.0883 22.9287C86.5537 23.197 87.0768 23.3495 87.6134 23.3733C88.1501 23.397 88.6846 23.2914 89.1719 23.0653Z" fill="white"/>
<path d="M111.577 74.9189C114.12 74.9189 116.182 72.8573 116.182 70.3143C116.182 67.7713 114.12 65.7098 111.577 65.7098C109.034 65.7098 106.973 67.7713 106.973 70.3143C106.973 72.8573 109.034 74.9189 111.577 74.9189Z" fill="#F2F2F2"/>
<path d="M112.161 68.3948C112.156 68.4977 112.164 68.6007 112.184 68.7017C112.194 68.8119 112.234 68.9171 112.3 69.0059C112.366 69.0947 112.455 69.1635 112.557 69.2047C112.575 69.2092 112.594 69.2118 112.612 69.2126C112.815 69.2216 112.997 69.0267 113.083 68.7416C113.112 68.6427 113.129 68.5408 113.134 68.4379C113.138 68.336 113.131 68.2339 113.111 68.1339C113.051 67.8411 112.886 67.629 112.683 67.62C112.414 67.6081 112.18 67.9552 112.161 68.3948Z" fill="white"/>
<path d="M112.42 68.7697C112.413 68.9264 112.462 69.0805 112.558 69.2047C112.576 69.2091 112.594 69.2118 112.612 69.2126C112.815 69.2216 112.998 69.0267 113.084 68.7415C113.113 68.6427 113.13 68.5407 113.134 68.4378C113.139 68.336 113.132 68.2339 113.112 68.1339C112.936 68.1271 112.764 68.1902 112.635 68.3094C112.505 68.4285 112.428 68.594 112.42 68.7697Z" fill="#F2F2F2"/>
<path d="M110.146 68.3055C110.127 68.7275 110.312 69.0817 110.565 69.1201C110.576 69.1218 110.586 69.1229 110.597 69.1234C110.866 69.1353 111.099 68.7882 111.118 68.3486C111.123 68.247 111.116 68.1451 111.096 68.0453C111.036 67.7519 110.871 67.5398 110.668 67.5308C110.399 67.5189 110.165 67.866 110.146 68.3055Z" fill="white"/>
<path d="M110.425 68.6814C110.418 68.8397 110.468 68.9953 110.565 69.1201C110.576 69.1218 110.587 69.1229 110.597 69.1234C110.866 69.1353 111.1 68.7882 111.119 68.3486C111.124 68.247 111.117 68.1451 111.096 68.0453C110.924 68.0438 110.757 68.1093 110.632 68.228C110.507 68.3466 110.433 68.5092 110.425 68.6814Z" fill="#F2F2F2"/>
<path d="M113.486 70.6949C113.435 71.8636 112.702 72.7805 111.851 72.7428C110.999 72.7051 110.351 71.7271 110.403 70.5583C110.868 70.8267 111.391 70.9791 111.928 71.0029C112.465 71.0267 112.999 70.921 113.486 70.6949Z" fill="white"/>
<path d="M200.175 20.9608C202.718 20.9608 204.78 18.8993 204.78 16.3563C204.78 13.8133 202.718 11.7518 200.175 11.7518C197.632 11.7518 195.571 13.8133 195.571 16.3563C195.571 18.8993 197.632 20.9608 200.175 20.9608Z" fill="#F2F2F2"/>
<path d="M200.758 14.4368C200.754 14.5397 200.762 14.6427 200.782 14.7437C200.792 14.8538 200.832 14.9591 200.897 15.0479C200.963 15.1367 201.053 15.2055 201.155 15.2467C201.173 15.2512 201.191 15.2538 201.21 15.2546C201.412 15.2636 201.595 15.0687 201.681 14.7835C201.71 14.6847 201.727 14.5828 201.731 14.4798C201.736 14.378 201.728 14.2759 201.708 14.1759C201.649 13.8831 201.484 13.671 201.28 13.662C201.011 13.6501 200.778 13.9972 200.758 14.4368Z" fill="white"/>
<path d="M201.018 14.8117C201.011 14.9684 201.059 15.1225 201.155 15.2467C201.173 15.2511 201.192 15.2538 201.21 15.2546C201.413 15.2635 201.596 15.0687 201.682 14.7835C201.711 14.6847 201.728 14.5827 201.732 14.4798C201.737 14.378 201.729 14.2759 201.709 14.1759C201.533 14.1691 201.362 14.2322 201.232 14.3513C201.103 14.4705 201.026 14.636 201.018 14.8117Z" fill="#F2F2F2"/>
<path d="M198.743 14.3475C198.725 14.7695 198.91 15.1237 199.163 15.1621C199.173 15.1638 199.184 15.1649 199.195 15.1653C199.463 15.1772 199.697 14.8302 199.716 14.3906C199.721 14.289 199.713 14.1871 199.693 14.0873C199.633 13.7939 199.468 13.5818 199.265 13.5728C198.996 13.5609 198.763 13.9079 198.743 14.3475Z" fill="white"/>
<path d="M199.023 14.7234C199.016 14.8816 199.065 15.0373 199.163 15.1621C199.174 15.1638 199.184 15.1649 199.195 15.1653C199.464 15.1772 199.698 14.8302 199.717 14.3906C199.722 14.289 199.714 14.1871 199.694 14.0873C199.521 14.0858 199.355 14.1513 199.23 14.2699C199.105 14.3886 199.03 14.5512 199.023 14.7234Z" fill="#F2F2F2"/>
<path d="M202.084 16.7369C202.032 17.9056 201.3 18.8225 200.448 18.7848C199.597 18.7471 198.949 17.7691 199 16.6003C199.466 16.8687 199.989 17.0211 200.526 17.0449C201.062 17.0687 201.597 16.963 202.084 16.7369Z" fill="white"/>
<path d="M6.32594 143.199C8.86894 143.199 10.9304 141.137 10.9304 138.594C10.9304 136.052 8.86894 133.99 6.32594 133.99C3.78294 133.99 1.72144 136.052 1.72144 138.594C1.72144 141.137 3.78294 143.199 6.32594 143.199Z" fill="#F2F2F2"/>
<path d="M6.90954 136.675C6.90481 136.778 6.91265 136.881 6.9329 136.982C6.94267 137.092 6.98271 137.197 7.04859 137.286C7.11448 137.375 7.20363 137.444 7.3062 137.485C7.32415 137.489 7.3425 137.492 7.36098 137.493C7.56353 137.502 7.74601 137.307 7.83195 137.022C7.86104 136.923 7.87797 136.821 7.88235 136.718C7.88727 136.616 7.87959 136.514 7.85946 136.414C7.79974 136.121 7.63466 135.909 7.43151 135.9C7.16246 135.888 6.92901 136.235 6.90954 136.675Z" fill="white"/>
<path d="M7.16917 137.05C7.16191 137.207 7.21052 137.361 7.30637 137.485C7.32434 137.489 7.34271 137.492 7.36121 137.493C7.56402 137.502 7.74673 137.307 7.83277 137.022C7.8619 136.923 7.87885 136.821 7.88324 136.718C7.88817 136.616 7.88047 136.514 7.86032 136.414C7.68436 136.407 7.51287 136.47 7.38335 136.589C7.25383 136.709 7.17682 136.874 7.16917 137.05Z" fill="#F2F2F2"/>
<path d="M4.89412 136.586C4.87543 137.008 5.06087 137.362 5.3136 137.4C5.32419 137.402 5.33487 137.403 5.34558 137.404C5.61404 137.415 5.84749 137.068 5.86695 136.629C5.87187 136.527 5.86417 136.425 5.84404 136.325C5.78434 136.032 5.61926 135.82 5.41611 135.811C5.14705 135.799 4.91359 136.146 4.89412 136.586Z" fill="white"/>
<path d="M5.17381 136.962C5.16647 137.12 5.21617 137.275 5.31388 137.4C5.32448 137.402 5.33517 137.403 5.3459 137.404C5.61469 137.415 5.84844 137.068 5.86792 136.629C5.87284 136.527 5.86514 136.425 5.84498 136.325C5.67239 136.324 5.50596 136.389 5.38075 136.508C5.25555 136.627 5.18135 136.789 5.17381 136.962Z" fill="#F2F2F2"/>
<path d="M8.23487 138.975C8.18311 140.144 7.45088 141.061 6.59938 141.023C5.74789 140.985 5.09957 140.007 5.15133 138.839C5.6167 139.107 6.13977 139.259 6.67643 139.283C7.21309 139.307 7.7476 139.201 8.23487 138.975Z" fill="white"/>
<path d="M7.32521 70.2558C9.86821 70.2558 11.9297 68.1943 11.9297 65.6513C11.9297 63.1083 9.86821 61.0468 7.32521 61.0468C4.78221 61.0468 2.7207 63.1083 2.7207 65.6513C2.7207 68.1943 4.78221 70.2558 7.32521 70.2558Z" fill="#F2F2F2"/>
<path d="M7.90856 63.7317C7.90383 63.8346 7.91168 63.9377 7.93192 64.0387C7.94169 64.1488 7.98173 64.254 8.04761 64.3428C8.1135 64.4316 8.20266 64.5004 8.30523 64.5416C8.32318 64.5461 8.34153 64.5487 8.36 64.5495C8.56255 64.5585 8.74504 64.3636 8.83097 64.0785C8.86006 63.9797 8.87699 63.8777 8.88138 63.7748C8.8863 63.6729 8.87861 63.5708 8.85849 63.4709C8.79876 63.178 8.63368 62.966 8.43054 62.957C8.16148 62.945 7.92803 63.2921 7.90856 63.7317Z" fill="white"/>
<path d="M8.16819 64.1067C8.16093 64.2633 8.20955 64.4174 8.30539 64.5416C8.32337 64.5461 8.34174 64.5487 8.36024 64.5495C8.56304 64.5585 8.74576 64.3636 8.8318 64.0784C8.86093 63.9796 8.87787 63.8777 8.88227 63.7748C8.88719 63.6729 8.8795 63.5708 8.85935 63.4708C8.68339 63.464 8.51189 63.5271 8.38237 63.6463C8.25285 63.7654 8.17585 63.9309 8.16819 64.1067Z" fill="#F2F2F2"/>
<path d="M5.89339 63.6425C5.8747 64.0645 6.06014 64.4186 6.31287 64.4571C6.32346 64.4588 6.33414 64.4598 6.34485 64.4603C6.61331 64.4722 6.84676 64.1251 6.86622 63.6855C6.87113 63.5839 6.86344 63.482 6.84331 63.3822C6.78361 63.0888 6.61853 62.8767 6.41538 62.8677C6.14632 62.8558 5.91285 63.2029 5.89339 63.6425Z" fill="white"/>
<path d="M6.17307 64.0183C6.16574 64.1766 6.21543 64.3322 6.31314 64.4571C6.32375 64.4587 6.33444 64.4598 6.34516 64.4603C6.61396 64.4722 6.8477 64.1251 6.86719 63.6855C6.87211 63.5839 6.86441 63.482 6.84425 63.3822C6.67166 63.3807 6.50522 63.4462 6.38002 63.5649C6.25482 63.6835 6.18062 63.8461 6.17307 64.0183Z" fill="#F2F2F2"/>
<path d="M9.23414 66.0318C9.18238 67.2005 8.45015 68.1174 7.59865 68.0797C6.74716 68.042 6.09884 67.064 6.1506 65.8953C6.61597 66.1636 7.13904 66.3161 7.6757 66.3398C8.21236 66.3636 8.74687 66.258 9.23414 66.0318Z" fill="white"/>
</g>
<defs>
<clipPath id="clip0_41_1446">
<rect width="229.711" height="191" fill="white"/>
</clipPath>
</defs>
</svg>
