<svg width="53" height="53" viewBox="0 0 53 53" fill="none" xmlns="http://www.w3.org/2000/svg">
<path d="M19.1462 30.9167H8.83329C6.40413 30.9167 4.41663 32.9042 4.41663 35.3334V48.5834H19.1462V30.9167Z" stroke="#292D32" stroke-width="3" stroke-miterlimit="10" stroke-linecap="round" stroke-linejoin="round"/>
<path d="M29.4371 22.0833H23.5408C21.1116 22.0833 19.1241 24.0708 19.1241 26.5V48.5833H33.8537V26.5C33.8537 24.0708 31.8883 22.0833 29.4371 22.0833Z" stroke="#292D32" stroke-width="3" stroke-miterlimit="10" stroke-linecap="round" stroke-linejoin="round"/>
<path d="M44.1667 37.5417H33.8538V48.5834H48.5833V41.9584C48.5833 39.5292 46.5958 37.5417 44.1667 37.5417Z" stroke="#292D32" stroke-width="3" stroke-miterlimit="10" stroke-linecap="round" stroke-linejoin="round"/>
<path d="M27.6484 4.57129L28.8188 6.91211C28.9733 7.24336 29.3929 7.55253 29.7463 7.59669L31.8663 7.95003C33.2134 8.17087 33.5446 9.16457 32.5729 10.1142L30.9167 11.7704C30.6296 12.0575 30.475 12.5875 30.5634 12.9629L31.0271 14.9946C31.4025 16.6067 30.5413 17.225 29.1279 16.3859L27.1404 15.2155C26.7871 14.9946 26.1909 14.9946 25.8375 15.2155L23.85 16.3859C22.4367 17.225 21.5754 16.6067 21.9508 14.9946L22.4146 12.9629C22.5029 12.5875 22.3484 12.0354 22.0613 11.7704L20.4271 10.1363C19.4554 9.1646 19.7646 8.1929 21.1338 7.97207L23.2538 7.6188C23.6071 7.55255 24.0267 7.24339 24.1813 6.93422L25.3517 4.59332C25.9921 3.31249 27.0079 3.31254 27.6484 4.57129Z" stroke="#292D32" stroke-width="3" stroke-linecap="round" stroke-linejoin="round"/>
</svg>
