<svg width="22" height="22" viewBox="0 0 22 22" fill="none" xmlns="http://www.w3.org/2000/svg">
<path d="M9.59771 21.9942C8.18801 21.9942 6.89579 21.7377 5.72691 21.2189C4.55803 20.7001 3.54187 19.9539 2.68431 18.9746C1.82674 17.9952 1.163 16.8294 0.698978 15.4711C0.234951 14.1129 0 12.6264 0 11C0 8.79067 0.399417 6.86698 1.20412 5.22893C2.00882 3.59089 3.11896 2.31426 4.54628 1.38739C5.97361 0.460519 7.62413 0 9.51548 0C10.9545 0 12.2174 0.26815 13.2982 0.798622C14.3848 1.32909 15.3011 2.08691 16.0471 3.06624C16.7931 4.04558 17.3569 5.20562 17.7387 6.5522C18.1205 7.89295 18.3085 9.37944 18.3085 11C18.3085 13.1569 17.9737 15.0631 17.3158 16.7303C16.6521 18.3975 15.6712 19.6916 14.3789 20.6126C13.0808 21.5337 11.4891 22 9.59771 22V21.9942ZM11.119 17.5056C12.1645 17.5056 13.0808 17.2491 13.8679 16.7303C14.655 16.2114 15.2718 15.4653 15.7064 14.486C16.1411 13.5066 16.3643 12.3466 16.3643 11C16.3643 9.96237 16.235 9.04716 15.9825 8.24854C15.7299 7.44992 15.3716 6.77372 14.9017 6.2141C14.4377 5.65448 13.8855 5.22893 13.2512 4.93164C12.6168 4.63434 11.9061 4.48861 11.1131 4.48861C10.0676 4.48861 9.1513 4.7451 8.36422 5.26391C7.57714 5.78272 6.9604 6.52305 6.52574 7.49073C6.09108 8.4584 5.86788 9.62427 5.86788 10.9942C5.86788 12.3641 6.08521 13.5008 6.52574 14.4801C6.9604 15.4595 7.57714 16.2056 8.36422 16.7244C9.1513 17.2432 10.0676 17.4997 11.1131 17.4997L11.119 17.5056ZM16.5757 21.6153V12.2125L17.2101 10.9126L16.5757 7.97456V0.378909H21.9913V21.6153H16.5757Z" fill="#276EF1"/>
</svg>
