<svg width="14" height="22" viewBox="0 0 14 22" fill="none" xmlns="http://www.w3.org/2000/svg">
<path d="M0 21.8448V0.213758H5.46839V10.391H4.52309C4.66668 8.19403 5.06155 6.32365 5.7077 4.76798C6.35386 3.2123 7.25728 2.0307 8.42395 1.21723C9.58464 0.403765 10.9846 0 12.624 0C12.8214 0 13.0547 0.00593768 13.312 0.0237508C13.5693 0.0356262 13.8026 0.0712526 14 0.13063V5.72988C12.7077 5.72988 11.553 5.82489 10.5299 6.00896C9.51284 6.19302 8.65728 6.5196 7.96924 6.99462C7.28121 7.46963 6.75471 8.13465 6.39573 9.00156C6.03676 9.86846 5.85727 10.9907 5.85727 12.3564V21.8448H0Z" fill="#276EF1"/>
</svg>
