<svg width="22" height="22" viewBox="0 0 22 22" fill="none" xmlns="http://www.w3.org/2000/svg">
<path d="M11.2304 22C8.86702 22 6.84379 21.5402 5.17243 20.6148C3.4952 19.6952 2.21676 18.4032 1.33123 16.7386C0.445699 15.0741 0 13.1709 0 11.0175C0 8.86402 0.428101 6.92593 1.29017 5.27884C2.14638 3.63175 3.39551 2.33968 5.02582 1.40265C6.65613 0.465609 8.62658 0 10.9372 0C13.2477 0 15.1185 0.453969 16.7195 1.36191C18.3263 2.26984 19.5579 3.55608 20.4141 5.21481C21.2703 6.87937 21.7042 8.82328 21.7042 11.0582V12.3561H4.01127V8.66614H17.4408L16.5963 10.3831C16.5963 9.04444 16.3618 7.89788 15.8985 6.94921C15.4352 6.00053 14.7959 5.27302 13.9749 4.77249C13.1598 4.27196 12.2039 4.01587 11.1014 4.01587C9.99885 4.01587 9.12505 4.2545 8.2923 4.72593C7.45955 5.20317 6.80274 5.94233 6.31013 6.94921C5.81752 7.95608 5.57121 9.26561 5.57121 10.8894C5.57121 12.4259 5.81752 13.6889 6.31013 14.6841C6.80274 15.6735 7.48301 16.4185 8.35681 16.9074C9.23061 17.3963 10.2158 17.6407 11.3125 17.6407C12.1863 17.6407 12.9604 17.5011 13.6348 17.2217C14.3092 16.9423 14.8663 16.564 15.3003 16.0926C15.7343 15.6153 16.0392 15.0857 16.2093 14.4979H21.5283C21.2761 15.9529 20.7073 17.245 19.8159 18.3741C18.9304 19.5032 17.7692 20.3937 16.3324 21.0339C14.8956 21.6741 13.195 22 11.2245 22H11.2304Z" fill="#276EF1"/>
</svg>
