<svg width="29" height="31" viewBox="0 0 29 31" fill="none" xmlns="http://www.w3.org/2000/svg">
<path d="M14.968 30.5562C12.6342 30.5562 10.5492 30.1799 8.7012 29.4334C6.85315 28.6868 5.2835 27.6228 3.98632 26.2355C2.69506 24.8541 1.70588 23.2316 1.02472 21.3681C0.343546 19.5047 0 17.4472 0 15.1899C0 12.9326 0.355393 10.9222 1.06618 9.07632C1.77696 7.23049 2.79576 5.62567 4.11663 4.27363C5.43751 2.92159 7.00124 1.86935 8.80781 1.12278C10.6144 0.376221 12.6224 0 14.8436 0C17.3432 0 19.6177 0.470276 21.6671 1.41671C23.7165 2.36314 25.3869 3.73869 26.6781 5.54337C27.9694 7.34806 28.7453 9.57599 29 12.233H23.0709C22.8162 10.5988 22.3127 9.26443 21.5546 8.2357C20.8023 7.20697 19.8605 6.4369 18.741 5.93135C17.6156 5.42581 16.3895 5.16715 15.0509 5.16715C13.2028 5.16715 11.6154 5.59628 10.2945 6.46041C8.97366 7.31866 7.9608 8.50611 7.26778 10.0169C6.56884 11.5276 6.22529 13.2559 6.22529 15.2017C6.22529 16.6713 6.40891 18.0292 6.78208 19.2872C7.14932 20.5452 7.71202 21.6209 8.46427 22.5262C9.21652 23.4315 10.1465 24.1369 11.26 24.6424C12.3677 25.148 13.6352 25.4066 15.0568 25.4066C16.4784 25.4066 17.7815 25.1539 18.8714 24.6424C19.9671 24.1369 20.8616 23.408 21.5605 22.4615C22.2594 21.5151 22.7214 20.3512 22.9465 18.9697H28.8342C28.6328 20.8332 28.1649 22.4851 27.4245 23.9194C26.6841 25.3596 25.7127 26.5706 24.5043 27.5582C23.296 28.5457 21.8981 29.2923 20.3048 29.8037C18.7114 30.3093 16.9345 30.5679 14.9739 30.5679L14.968 30.5562Z" fill="#276EF1"/>
</svg>
